# MagicaVoxel @ Ephtracy

# material
mtllib enemy02.mtl
usemtl palette

# normals
vn -1 0 0
vn 1 0 0
vn 0 0 1
vn 0 0 -1
vn 0 -1 0
vn 0 1 0

# texcoords
vt 0.306641 0.5
vt 0.466797 0.5
vt 0.587891 0.5
vt 0.876953 0.5
vt 0.958984 0.5

# verts
v -7.5 0 7.5
v -7.5 0 -7.5
v -7.5 1 7.5
v -7.5 1 -7.5
v -7.5 14 7.5
v -7.5 14 -7.5
v -7.5 15 7.5
v -7.5 15 -7.5
v -6.5 1 7.5
v -6.5 1 -7.5
v -6.5 2 7.5
v -6.5 2 -7.5
v -6.5 6 7.5
v -6.5 6 -7.5
v -6.5 9 7.5
v -6.5 9 -7.5
v -6.5 13 7.5
v -6.5 13 -7.5
v -6.5 14 7.5
v -6.5 14 -7.5
v -5.5 2 7.5
v -5.5 2 -7.5
v -5.5 6 7.5
v -5.5 6 -7.5
v -5.5 9 7.5
v -5.5 9 -7.5
v -5.5 13 7.5
v -5.5 13 -7.5
v -3.5 3 7.5
v -3.5 3 6.5
v -3.5 3 -6.5
v -3.5 3 -7.5
v -3.5 4 7.5
v -3.5 4 6.5
v -3.5 4 -6.5
v -3.5 4 -7.5
v -3.5 6 7.5
v -3.5 6 6.5
v -3.5 6 -6.5
v -3.5 6 -7.5
v -3.5 7 7.5
v -3.5 7 6.5
v -3.5 7 -6.5
v -3.5 7 -7.5
v -3.5 11 7.5
v -3.5 11 6.5
v -3.5 11 -6.5
v -3.5 11 -7.5
v -3.5 12 7.5
v -3.5 12 6.5
v -3.5 12 -6.5
v -3.5 12 -7.5
v 1.5 7 7.5
v 1.5 7 6.5
v 1.5 7 -6.5
v 1.5 7 -7.5
v 1.5 9 7.5
v 1.5 9 6.5
v 1.5 9 -6.5
v 1.5 9 -7.5
v 2.5 2 7.5
v 2.5 2 -7.5
v 2.5 3 7.5
v 2.5 3 -7.5
v 2.5 6 7.5
v 2.5 6 6.5
v 2.5 6 -6.5
v 2.5 6 -7.5
v 2.5 7 7.5
v 2.5 7 6.5
v 2.5 7 -6.5
v 2.5 7 -7.5
v 2.5 12 7.5
v 2.5 12 -7.5
v 2.5 13 7.5
v 2.5 13 -7.5
v 3.5 1 7.5
v 3.5 1 -7.5
v 3.5 2 7.5
v 3.5 2 -7.5
v 3.5 13 7.5
v 3.5 13 -7.5
v 3.5 14 7.5
v 3.5 14 -7.5
v 4.5 3 7.5
v 4.5 3 6.5
v 4.5 3 -6.5
v 4.5 3 -7.5
v 4.5 7 7.5
v 4.5 7 6.5
v 4.5 7 -6.5
v 4.5 7 -7.5
v 4.5 9 7.5
v 4.5 9 6.5
v 4.5 9 -6.5
v 4.5 9 -7.5
v 4.5 12 7.5
v 4.5 12 6.5
v 4.5 12 -6.5
v 4.5 12 -7.5
v 5.5 0 7.5
v 5.5 0 -7.5
v 5.5 1 7.5
v 5.5 1 -7.5
v 5.5 14 7.5
v 5.5 14 -7.5
v 5.5 15 7.5
v 5.5 15 -7.5
v -5.5 0 7.5
v -5.5 0 -7.5
v -5.5 1 7.5
v -5.5 1 -7.5
v -5.5 14 7.5
v -5.5 14 -7.5
v -5.5 15 7.5
v -5.5 15 -7.5
v -4.5 3 7.5
v -4.5 3 6.5
v -4.5 3 -6.5
v -4.5 3 -7.5
v -4.5 7 7.5
v -4.5 7 6.5
v -4.5 7 -6.5
v -4.5 7 -7.5
v -4.5 9 7.5
v -4.5 9 6.5
v -4.5 9 -6.5
v -4.5 9 -7.5
v -4.5 12 7.5
v -4.5 12 6.5
v -4.5 12 -6.5
v -4.5 12 -7.5
v -3.5 1 7.5
v -3.5 1 -7.5
v -3.5 2 7.5
v -3.5 2 -7.5
v -3.5 13 7.5
v -3.5 13 -7.5
v -3.5 14 7.5
v -3.5 14 -7.5
v -2.5 2 7.5
v -2.5 2 -7.5
v -2.5 3 7.5
v -2.5 3 -7.5
v -2.5 6 7.5
v -2.5 6 6.5
v -2.5 6 -6.5
v -2.5 6 -7.5
v -2.5 7 7.5
v -2.5 7 6.5
v -2.5 7 -6.5
v -2.5 7 -7.5
v -2.5 12 7.5
v -2.5 12 -7.5
v -2.5 13 7.5
v -2.5 13 -7.5
v -1.5 7 7.5
v -1.5 7 6.5
v -1.5 7 -6.5
v -1.5 7 -7.5
v -1.5 9 7.5
v -1.5 9 6.5
v -1.5 9 -6.5
v -1.5 9 -7.5
v 3.5 3 7.5
v 3.5 3 6.5
v 3.5 3 -6.5
v 3.5 3 -7.5
v 3.5 4 7.5
v 3.5 4 6.5
v 3.5 4 -6.5
v 3.5 4 -7.5
v 3.5 6 7.5
v 3.5 6 6.5
v 3.5 6 -6.5
v 3.5 6 -7.5
v 3.5 7 7.5
v 3.5 7 6.5
v 3.5 7 -6.5
v 3.5 7 -7.5
v 3.5 11 7.5
v 3.5 11 6.5
v 3.5 11 -6.5
v 3.5 11 -7.5
v 3.5 12 7.5
v 3.5 12 6.5
v 3.5 12 -6.5
v 3.5 12 -7.5
v 5.5 2 7.5
v 5.5 2 -7.5
v 5.5 6 7.5
v 5.5 6 -7.5
v 5.5 9 7.5
v 5.5 9 -7.5
v 5.5 13 7.5
v 5.5 13 -7.5
v 6.5 1 7.5
v 6.5 1 -7.5
v 6.5 2 7.5
v 6.5 2 -7.5
v 6.5 6 7.5
v 6.5 6 -7.5
v 6.5 9 7.5
v 6.5 9 -7.5
v 6.5 13 7.5
v 6.5 13 -7.5
v 6.5 14 7.5
v 6.5 14 -7.5
v 7.5 0 7.5
v 7.5 0 -7.5
v 7.5 1 7.5
v 7.5 1 -7.5
v 7.5 14 7.5
v 7.5 14 -7.5
v 7.5 15 7.5
v 7.5 15 -7.5
v -7.5 0 7.5
v -7.5 1 7.5
v -7.5 14 7.5
v -7.5 15 7.5
v -6.5 1 7.5
v -6.5 2 7.5
v -6.5 6 7.5
v -6.5 9 7.5
v -6.5 13 7.5
v -6.5 14 7.5
v -5.5 0 7.5
v -5.5 1 7.5
v -5.5 2 7.5
v -5.5 6 7.5
v -5.5 9 7.5
v -5.5 13 7.5
v -5.5 14 7.5
v -5.5 15 7.5
v -4.5 3 7.5
v -4.5 7 7.5
v -4.5 9 7.5
v -4.5 12 7.5
v -3.5 1 7.5
v -3.5 2 7.5
v -3.5 3 7.5
v -3.5 4 7.5
v -3.5 6 7.5
v -3.5 7 7.5
v -3.5 8 7.5
v -3.5 9 7.5
v -3.5 11 7.5
v -3.5 12 7.5
v -3.5 13 7.5
v -3.5 14 7.5
v -2.5 2 7.5
v -2.5 3 7.5
v -2.5 6 7.5
v -2.5 7 7.5
v -2.5 8 7.5
v -2.5 9 7.5
v -2.5 12 7.5
v -2.5 13 7.5
v -1.5 7 7.5
v -1.5 9 7.5
v 1.5 7 7.5
v 1.5 9 7.5
v 2.5 2 7.5
v 2.5 3 7.5
v 2.5 6 7.5
v 2.5 7 7.5
v 2.5 8 7.5
v 2.5 9 7.5
v 2.5 12 7.5
v 2.5 13 7.5
v 3.5 1 7.5
v 3.5 2 7.5
v 3.5 3 7.5
v 3.5 4 7.5
v 3.5 6 7.5
v 3.5 7 7.5
v 3.5 8 7.5
v 3.5 9 7.5
v 3.5 11 7.5
v 3.5 12 7.5
v 3.5 13 7.5
v 3.5 14 7.5
v 4.5 3 7.5
v 4.5 7 7.5
v 4.5 9 7.5
v 4.5 12 7.5
v 5.5 0 7.5
v 5.5 1 7.5
v 5.5 2 7.5
v 5.5 6 7.5
v 5.5 9 7.5
v 5.5 13 7.5
v 5.5 14 7.5
v 5.5 15 7.5
v 6.5 1 7.5
v 6.5 2 7.5
v 6.5 6 7.5
v 6.5 9 7.5
v 6.5 13 7.5
v 6.5 14 7.5
v 7.5 0 7.5
v 7.5 1 7.5
v 7.5 14 7.5
v 7.5 15 7.5
v -4.5 3 6.5
v -4.5 7 6.5
v -4.5 9 6.5
v -4.5 12 6.5
v -3.5 3 6.5
v -3.5 4 6.5
v -3.5 6 6.5
v -3.5 7 6.5
v -3.5 9 6.5
v -3.5 11 6.5
v -3.5 12 6.5
v -2.5 6 6.5
v -2.5 7 6.5
v -2.5 9 6.5
v -1.5 7 6.5
v -1.5 9 6.5
v 1.5 7 6.5
v 1.5 9 6.5
v 2.5 6 6.5
v 2.5 7 6.5
v 2.5 9 6.5
v 3.5 3 6.5
v 3.5 4 6.5
v 3.5 6 6.5
v 3.5 7 6.5
v 3.5 9 6.5
v 3.5 11 6.5
v 3.5 12 6.5
v 4.5 3 6.5
v 4.5 7 6.5
v 4.5 9 6.5
v 4.5 12 6.5
v -4.5 3 -6.5
v -4.5 7 -6.5
v -4.5 9 -6.5
v -4.5 12 -6.5
v -3.5 3 -6.5
v -3.5 4 -6.5
v -3.5 6 -6.5
v -3.5 7 -6.5
v -3.5 9 -6.5
v -3.5 11 -6.5
v -3.5 12 -6.5
v -2.5 6 -6.5
v -2.5 7 -6.5
v -2.5 9 -6.5
v -1.5 7 -6.5
v -1.5 9 -6.5
v 1.5 7 -6.5
v 1.5 9 -6.5
v 2.5 6 -6.5
v 2.5 7 -6.5
v 2.5 9 -6.5
v 3.5 3 -6.5
v 3.5 4 -6.5
v 3.5 6 -6.5
v 3.5 7 -6.5
v 3.5 9 -6.5
v 3.5 11 -6.5
v 3.5 12 -6.5
v 4.5 3 -6.5
v 4.5 7 -6.5
v 4.5 9 -6.5
v 4.5 12 -6.5
v -7.5 0 -7.5
v -7.5 1 -7.5
v -7.5 14 -7.5
v -7.5 15 -7.5
v -6.5 1 -7.5
v -6.5 2 -7.5
v -6.5 6 -7.5
v -6.5 9 -7.5
v -6.5 13 -7.5
v -6.5 14 -7.5
v -5.5 0 -7.5
v -5.5 1 -7.5
v -5.5 2 -7.5
v -5.5 6 -7.5
v -5.5 9 -7.5
v -5.5 13 -7.5
v -5.5 14 -7.5
v -5.5 15 -7.5
v -4.5 3 -7.5
v -4.5 7 -7.5
v -4.5 9 -7.5
v -4.5 12 -7.5
v -3.5 1 -7.5
v -3.5 2 -7.5
v -3.5 3 -7.5
v -3.5 4 -7.5
v -3.5 6 -7.5
v -3.5 7 -7.5
v -3.5 8 -7.5
v -3.5 9 -7.5
v -3.5 11 -7.5
v -3.5 12 -7.5
v -3.5 13 -7.5
v -3.5 14 -7.5
v -2.5 2 -7.5
v -2.5 3 -7.5
v -2.5 6 -7.5
v -2.5 7 -7.5
v -2.5 8 -7.5
v -2.5 9 -7.5
v -2.5 12 -7.5
v -2.5 13 -7.5
v -1.5 7 -7.5
v -1.5 9 -7.5
v 1.5 7 -7.5
v 1.5 9 -7.5
v 2.5 2 -7.5
v 2.5 3 -7.5
v 2.5 6 -7.5
v 2.5 7 -7.5
v 2.5 8 -7.5
v 2.5 9 -7.5
v 2.5 12 -7.5
v 2.5 13 -7.5
v 3.5 1 -7.5
v 3.5 2 -7.5
v 3.5 3 -7.5
v 3.5 4 -7.5
v 3.5 6 -7.5
v 3.5 7 -7.5
v 3.5 8 -7.5
v 3.5 9 -7.5
v 3.5 11 -7.5
v 3.5 12 -7.5
v 3.5 13 -7.5
v 3.5 14 -7.5
v 4.5 3 -7.5
v 4.5 7 -7.5
v 4.5 9 -7.5
v 4.5 12 -7.5
v 5.5 0 -7.5
v 5.5 1 -7.5
v 5.5 2 -7.5
v 5.5 6 -7.5
v 5.5 9 -7.5
v 5.5 13 -7.5
v 5.5 14 -7.5
v 5.5 15 -7.5
v 6.5 1 -7.5
v 6.5 2 -7.5
v 6.5 6 -7.5
v 6.5 9 -7.5
v 6.5 13 -7.5
v 6.5 14 -7.5
v 7.5 0 -7.5
v 7.5 1 -7.5
v 7.5 14 -7.5
v 7.5 15 -7.5
v -7.5 0 7.5
v -5.5 0 7.5
v 5.5 0 7.5
v 7.5 0 7.5
v -7.5 0 -7.5
v -5.5 0 -7.5
v 5.5 0 -7.5
v 7.5 0 -7.5
v -5.5 1 7.5
v -3.5 1 7.5
v 3.5 1 7.5
v 5.5 1 7.5
v -5.5 1 -7.5
v -3.5 1 -7.5
v 3.5 1 -7.5
v 5.5 1 -7.5
v -3.5 2 7.5
v -2.5 2 7.5
v 2.5 2 7.5
v 3.5 2 7.5
v -3.5 2 -7.5
v -2.5 2 -7.5
v 2.5 2 -7.5
v 3.5 2 -7.5
v -2.5 3 7.5
v 2.5 3 7.5
v -2.5 3 -7.5
v 2.5 3 -7.5
v -6.5 6 7.5
v -5.5 6 7.5
v -3.5 6 7.5
v -2.5 6 7.5
v 2.5 6 7.5
v 3.5 6 7.5
v 5.5 6 7.5
v 6.5 6 7.5
v -3.5 6 6.5
v -2.5 6 6.5
v 2.5 6 6.5
v 3.5 6 6.5
v -3.5 6 -6.5
v -2.5 6 -6.5
v 2.5 6 -6.5
v 3.5 6 -6.5
v -6.5 6 -7.5
v -5.5 6 -7.5
v -3.5 6 -7.5
v -2.5 6 -7.5
v 2.5 6 -7.5
v 3.5 6 -7.5
v 5.5 6 -7.5
v 6.5 6 -7.5
v -4.5 7 7.5
v -3.5 7 7.5
v -2.5 7 7.5
v -1.5 7 7.5
v 1.5 7 7.5
v 2.5 7 7.5
v 3.5 7 7.5
v 4.5 7 7.5
v -4.5 7 6.5
v -3.5 7 6.5
v -2.5 7 6.5
v -1.5 7 6.5
v 1.5 7 6.5
v 2.5 7 6.5
v 3.5 7 6.5
v 4.5 7 6.5
v -4.5 7 -6.5
v -3.5 7 -6.5
v -2.5 7 -6.5
v -1.5 7 -6.5
v 1.5 7 -6.5
v 2.5 7 -6.5
v 3.5 7 -6.5
v 4.5 7 -6.5
v -4.5 7 -7.5
v -3.5 7 -7.5
v -2.5 7 -7.5
v -1.5 7 -7.5
v 1.5 7 -7.5
v 2.5 7 -7.5
v 3.5 7 -7.5
v 4.5 7 -7.5
v -3.5 11 7.5
v 3.5 11 7.5
v -3.5 11 6.5
v 3.5 11 6.5
v -3.5 11 -6.5
v 3.5 11 -6.5
v -3.5 11 -7.5
v 3.5 11 -7.5
v -4.5 12 7.5
v -3.5 12 7.5
v 3.5 12 7.5
v 4.5 12 7.5
v -4.5 12 6.5
v -3.5 12 6.5
v 3.5 12 6.5
v 4.5 12 6.5
v -4.5 12 -6.5
v -3.5 12 -6.5
v 3.5 12 -6.5
v 4.5 12 -6.5
v -4.5 12 -7.5
v -3.5 12 -7.5
v 3.5 12 -7.5
v 4.5 12 -7.5
v -6.5 13 7.5
v -5.5 13 7.5
v 5.5 13 7.5
v 6.5 13 7.5
v -6.5 13 -7.5
v -5.5 13 -7.5
v 5.5 13 -7.5
v 6.5 13 -7.5
v -7.5 14 7.5
v -6.5 14 7.5
v 6.5 14 7.5
v 7.5 14 7.5
v -7.5 14 -7.5
v -6.5 14 -7.5
v 6.5 14 -7.5
v 7.5 14 -7.5
v -7.5 1 7.5
v -6.5 1 7.5
v 6.5 1 7.5
v 7.5 1 7.5
v -7.5 1 -7.5
v -6.5 1 -7.5
v 6.5 1 -7.5
v 7.5 1 -7.5
v -6.5 2 7.5
v -5.5 2 7.5
v 5.5 2 7.5
v 6.5 2 7.5
v -6.5 2 -7.5
v -5.5 2 -7.5
v 5.5 2 -7.5
v 6.5 2 -7.5
v -4.5 3 7.5
v -3.5 3 7.5
v 3.5 3 7.5
v 4.5 3 7.5
v -4.5 3 6.5
v -3.5 3 6.5
v 3.5 3 6.5
v 4.5 3 6.5
v -4.5 3 -6.5
v -3.5 3 -6.5
v 3.5 3 -6.5
v 4.5 3 -6.5
v -4.5 3 -7.5
v -3.5 3 -7.5
v 3.5 3 -7.5
v 4.5 3 -7.5
v -3.5 4 7.5
v 3.5 4 7.5
v -3.5 4 6.5
v 3.5 4 6.5
v -3.5 4 -6.5
v 3.5 4 -6.5
v -3.5 4 -7.5
v 3.5 4 -7.5
v -6.5 9 7.5
v -5.5 9 7.5
v -4.5 9 7.5
v -3.5 9 7.5
v -2.5 9 7.5
v -1.5 9 7.5
v 1.5 9 7.5
v 2.5 9 7.5
v 3.5 9 7.5
v 4.5 9 7.5
v 5.5 9 7.5
v 6.5 9 7.5
v -4.5 9 6.5
v -3.5 9 6.5
v -2.5 9 6.5
v -1.5 9 6.5
v 1.5 9 6.5
v 2.5 9 6.5
v 3.5 9 6.5
v 4.5 9 6.5
v -4.5 9 -6.5
v -3.5 9 -6.5
v -2.5 9 -6.5
v -1.5 9 -6.5
v 1.5 9 -6.5
v 2.5 9 -6.5
v 3.5 9 -6.5
v 4.5 9 -6.5
v -6.5 9 -7.5
v -5.5 9 -7.5
v -4.5 9 -7.5
v -3.5 9 -7.5
v -2.5 9 -7.5
v -1.5 9 -7.5
v 1.5 9 -7.5
v 2.5 9 -7.5
v 3.5 9 -7.5
v 4.5 9 -7.5
v 5.5 9 -7.5
v 6.5 9 -7.5
v -2.5 12 7.5
v 2.5 12 7.5
v -2.5 12 -7.5
v 2.5 12 -7.5
v -3.5 13 7.5
v -2.5 13 7.5
v 2.5 13 7.5
v 3.5 13 7.5
v -3.5 13 -7.5
v -2.5 13 -7.5
v 2.5 13 -7.5
v 3.5 13 -7.5
v -5.5 14 7.5
v -3.5 14 7.5
v 3.5 14 7.5
v 5.5 14 7.5
v -5.5 14 -7.5
v -3.5 14 -7.5
v 3.5 14 -7.5
v 5.5 14 -7.5
v -7.5 15 7.5
v -5.5 15 7.5
v 5.5 15 7.5
v 7.5 15 7.5
v -7.5 15 -7.5
v -5.5 15 -7.5
v 5.5 15 -7.5
v 7.5 15 -7.5

# faces
f 3/2/1 2/2/1 1/2/1
f 4/2/1 2/2/1 3/2/1
f 7/2/1 6/2/1 5/2/1
f 8/2/1 6/2/1 7/2/1
f 11/2/1 10/2/1 9/2/1
f 12/2/1 10/2/1 11/2/1
f 15/2/1 14/2/1 13/2/1
f 16/2/1 14/2/1 15/2/1
f 19/2/1 18/2/1 17/2/1
f 20/2/1 18/2/1 19/2/1
f 23/2/1 22/2/1 21/2/1
f 24/2/1 22/2/1 23/2/1
f 27/2/1 26/2/1 25/2/1
f 28/2/1 26/2/1 27/2/1
f 33/2/1 30/2/1 29/2/1
f 34/2/1 30/2/1 33/2/1
f 35/2/1 32/2/1 31/2/1
f 36/2/1 32/2/1 35/2/1
f 41/5/1 38/5/1 37/5/1
f 42/5/1 38/5/1 41/5/1
f 43/5/1 40/5/1 39/5/1
f 44/5/1 40/5/1 43/5/1
f 49/2/1 46/2/1 45/2/1
f 50/2/1 46/2/1 49/2/1
f 51/2/1 48/2/1 47/2/1
f 52/2/1 48/2/1 51/2/1
f 57/5/1 54/5/1 53/5/1
f 58/5/1 54/5/1 57/5/1
f 59/5/1 56/5/1 55/5/1
f 60/5/1 56/5/1 59/5/1
f 63/2/1 62/2/1 61/2/1
f 64/2/1 62/2/1 63/2/1
f 69/5/1 66/5/1 65/5/1
f 70/5/1 66/5/1 69/5/1
f 71/5/1 68/5/1 67/5/1
f 72/5/1 68/5/1 71/5/1
f 75/2/1 74/2/1 73/2/1
f 76/2/1 74/2/1 75/2/1
f 79/2/1 78/2/1 77/2/1
f 80/2/1 78/2/1 79/2/1
f 83/2/1 82/2/1 81/2/1
f 84/2/1 82/2/1 83/2/1
f 89/2/1 86/2/1 85/2/1
f 90/2/1 86/2/1 89/2/1
f 91/2/1 88/2/1 87/2/1
f 92/2/1 88/2/1 91/2/1
f 97/2/1 94/2/1 93/2/1
f 98/2/1 94/2/1 97/2/1
f 99/2/1 96/2/1 95/2/1
f 100/2/1 96/2/1 99/2/1
f 103/2/1 102/2/1 101/2/1
f 104/2/1 102/2/1 103/2/1
f 107/2/1 106/2/1 105/2/1
f 108/2/1 106/2/1 107/2/1
f 109/2/2 110/2/2 111/2/2
f 111/2/2 110/2/2 112/2/2
f 113/2/2 114/2/2 115/2/2
f 115/2/2 114/2/2 116/2/2
f 117/2/2 118/2/2 121/2/2
f 121/2/2 118/2/2 122/2/2
f 119/2/2 120/2/2 123/2/2
f 123/2/2 120/2/2 124/2/2
f 125/2/2 126/2/2 129/2/2
f 129/2/2 126/2/2 130/2/2
f 127/2/2 128/2/2 131/2/2
f 131/2/2 128/2/2 132/2/2
f 133/2/2 134/2/2 135/2/2
f 135/2/2 134/2/2 136/2/2
f 137/2/2 138/2/2 139/2/2
f 139/2/2 138/2/2 140/2/2
f 141/2/2 142/2/2 143/2/2
f 143/2/2 142/2/2 144/2/2
f 145/5/2 146/5/2 149/5/2
f 149/5/2 146/5/2 150/5/2
f 147/5/2 148/5/2 151/5/2
f 151/5/2 148/5/2 152/5/2
f 153/2/2 154/2/2 155/2/2
f 155/2/2 154/2/2 156/2/2
f 157/5/2 158/5/2 161/5/2
f 161/5/2 158/5/2 162/5/2
f 159/5/2 160/5/2 163/5/2
f 163/5/2 160/5/2 164/5/2
f 165/2/2 166/2/2 169/2/2
f 169/2/2 166/2/2 170/2/2
f 167/2/2 168/2/2 171/2/2
f 171/2/2 168/2/2 172/2/2
f 173/5/2 174/5/2 177/5/2
f 177/5/2 174/5/2 178/5/2
f 175/5/2 176/5/2 179/5/2
f 179/5/2 176/5/2 180/5/2
f 181/2/2 182/2/2 185/2/2
f 185/2/2 182/2/2 186/2/2
f 183/2/2 184/2/2 187/2/2
f 187/2/2 184/2/2 188/2/2
f 189/2/2 190/2/2 191/2/2
f 191/2/2 190/2/2 192/2/2
f 193/2/2 194/2/2 195/2/2
f 195/2/2 194/2/2 196/2/2
f 197/2/2 198/2/2 199/2/2
f 199/2/2 198/2/2 200/2/2
f 201/2/2 202/2/2 203/2/2
f 203/2/2 202/2/2 204/2/2
f 205/2/2 206/2/2 207/2/2
f 207/2/2 206/2/2 208/2/2
f 209/2/2 210/2/2 211/2/2
f 211/2/2 210/2/2 212/2/2
f 213/2/2 214/2/2 215/2/2
f 215/2/2 214/2/2 216/2/2
f 221/2/3 218/2/3 217/2/3
f 226/2/3 220/2/3 219/2/3
f 227/2/3 221/2/3 217/2/3
f 227/2/3 222/2/3 221/2/3
f 228/2/3 222/2/3 227/2/3
f 229/2/3 222/2/3 228/2/3
f 230/2/3 224/2/3 223/2/3
f 231/2/3 224/2/3 230/2/3
f 232/2/3 226/2/3 225/2/3
f 233/2/3 220/2/3 226/2/3
f 233/2/3 226/2/3 232/2/3
f 234/2/3 220/2/3 233/2/3
f 235/2/3 229/2/3 228/2/3
f 235/2/3 231/2/3 230/2/3
f 235/2/3 233/2/3 232/2/3
f 235/2/3 232/2/3 231/2/3
f 235/2/3 230/2/3 229/2/3
f 236/2/3 233/2/3 235/2/3
f 237/2/3 233/2/3 236/2/3
f 238/2/3 233/2/3 237/2/3
f 239/2/3 235/2/3 228/2/3
f 240/2/3 235/2/3 239/2/3
f 241/2/3 235/2/3 240/2/3
f 244/5/3 237/5/3 236/5/3
f 245/5/3 237/5/3 244/5/3
f 246/5/3 237/5/3 245/5/3
f 248/2/3 233/2/3 238/2/3
f 249/2/3 233/2/3 248/2/3
f 250/2/3 233/2/3 249/2/3
f 251/2/3 242/2/3 241/2/3
f 251/2/3 241/2/3 240/2/3
f 252/2/3 242/2/3 251/2/3
f 253/5/3 244/5/3 243/5/3
f 253/5/3 245/5/3 244/5/3
f 254/5/3 245/5/3 253/5/3
f 255/4/3 246/4/3 245/4/3
f 255/5/3 245/5/3 254/5/3
f 256/4/3 246/4/3 255/4/3
f 257/2/3 249/2/3 248/2/3
f 257/2/3 248/2/3 247/2/3
f 258/2/3 249/2/3 257/2/3
f 259/5/3 256/5/3 255/5/3
f 259/5/3 255/5/3 254/5/3
f 260/5/3 256/5/3 259/5/3
f 264/2/3 242/2/3 252/2/3
f 266/5/3 262/5/3 261/5/3
f 267/5/3 262/5/3 266/5/3
f 268/5/3 262/5/3 267/5/3
f 269/2/3 257/2/3 247/2/3
f 272/2/3 264/2/3 263/2/3
f 273/2/3 242/2/3 264/2/3
f 273/2/3 264/2/3 272/2/3
f 274/2/3 242/2/3 273/2/3
f 275/5/3 267/5/3 266/5/3
f 275/5/3 266/5/3 265/5/3
f 276/5/3 267/5/3 275/5/3
f 277/4/3 268/4/3 267/4/3
f 277/5/3 267/5/3 276/5/3
f 278/4/3 268/4/3 277/4/3
f 279/2/3 270/2/3 269/2/3
f 279/2/3 269/2/3 247/2/3
f 280/2/3 270/2/3 279/2/3
f 281/2/3 270/2/3 280/2/3
f 283/2/3 272/2/3 271/2/3
f 283/2/3 273/2/3 272/2/3
f 284/5/3 278/5/3 277/5/3
f 284/5/3 277/5/3 276/5/3
f 285/5/3 278/5/3 284/5/3
f 286/2/3 281/2/3 280/2/3
f 286/2/3 282/2/3 281/2/3
f 288/2/3 285/2/3 284/2/3
f 288/2/3 286/2/3 285/2/3
f 288/2/3 284/2/3 283/2/3
f 288/2/3 283/2/3 271/2/3
f 289/2/3 286/2/3 288/2/3
f 290/2/3 286/2/3 289/2/3
f 291/2/3 286/2/3 290/2/3
f 292/2/3 282/2/3 286/2/3
f 292/2/3 286/2/3 291/2/3
f 293/2/3 282/2/3 292/2/3
f 295/2/3 288/2/3 287/2/3
f 295/2/3 289/2/3 288/2/3
f 296/2/3 289/2/3 295/2/3
f 297/2/3 291/2/3 290/2/3
f 298/2/3 291/2/3 297/2/3
f 299/2/3 293/2/3 292/2/3
f 299/2/3 294/2/3 293/2/3
f 300/2/3 294/2/3 299/2/3
f 301/2/3 295/2/3 287/2/3
f 302/2/3 295/2/3 301/2/3
f 303/2/3 294/2/3 300/2/3
f 304/2/3 294/2/3 303/2/3
f 309/3/3 306/3/3 305/3/3
f 310/3/3 306/3/3 309/3/3
f 311/3/3 306/3/3 310/3/3
f 312/3/3 306/3/3 311/3/3
f 313/3/3 308/3/3 307/3/3
f 314/3/3 308/3/3 313/3/3
f 315/3/3 308/3/3 314/3/3
f 316/3/3 311/3/3 310/3/3
f 318/3/3 314/3/3 313/3/3
f 319/3/3 317/3/3 316/3/3
f 320/3/3 314/3/3 318/3/3
f 321/3/3 319/3/3 316/3/3
f 321/3/3 320/3/3 319/3/3
f 322/3/3 314/3/3 320/3/3
f 322/3/3 320/3/3 321/3/3
f 323/3/3 321/3/3 316/3/3
f 323/3/3 316/3/3 310/3/3
f 324/3/3 321/3/3 323/3/3
f 325/3/3 314/3/3 322/3/3
f 327/3/3 323/3/3 310/3/3
f 328/3/3 323/3/3 327/3/3
f 330/3/3 314/3/3 325/3/3
f 331/3/3 314/3/3 330/3/3
f 333/3/3 329/3/3 328/3/3
f 333/3/3 327/3/3 326/3/3
f 333/3/3 328/3/3 327/3/3
f 334/3/3 329/3/3 333/3/3
f 335/3/3 332/3/3 331/3/3
f 335/3/3 331/3/3 330/3/3
f 336/3/3 332/3/3 335/3/3
f 337/3/4 338/3/4 341/3/4
f 341/3/4 338/3/4 342/3/4
f 342/3/4 338/3/4 343/3/4
f 343/3/4 338/3/4 344/3/4
f 339/3/4 340/3/4 345/3/4
f 345/3/4 340/3/4 346/3/4
f 346/3/4 340/3/4 347/3/4
f 342/3/4 343/3/4 348/3/4
f 345/3/4 346/3/4 350/3/4
f 348/3/4 349/3/4 351/3/4
f 350/3/4 346/3/4 352/3/4
f 348/3/4 351/3/4 353/3/4
f 351/3/4 352/3/4 353/3/4
f 352/3/4 346/3/4 354/3/4
f 353/3/4 352/3/4 354/3/4
f 348/3/4 353/3/4 355/3/4
f 342/3/4 348/3/4 355/3/4
f 355/3/4 353/3/4 356/3/4
f 354/3/4 346/3/4 357/3/4
f 342/3/4 355/3/4 359/3/4
f 359/3/4 355/3/4 360/3/4
f 357/3/4 346/3/4 362/3/4
f 362/3/4 346/3/4 363/3/4
f 360/3/4 361/3/4 365/3/4
f 358/3/4 359/3/4 365/3/4
f 359/3/4 360/3/4 365/3/4
f 365/3/4 361/3/4 366/3/4
f 363/3/4 364/3/4 367/3/4
f 362/3/4 363/3/4 367/3/4
f 367/3/4 364/3/4 368/3/4
f 369/2/4 370/2/4 373/2/4
f 371/2/4 372/2/4 378/2/4
f 369/2/4 373/2/4 379/2/4
f 373/2/4 374/2/4 379/2/4
f 379/2/4 374/2/4 380/2/4
f 380/2/4 374/2/4 381/2/4
f 375/2/4 376/2/4 382/2/4
f 382/2/4 376/2/4 383/2/4
f 377/2/4 378/2/4 384/2/4
f 378/2/4 372/2/4 385/2/4
f 384/2/4 378/2/4 385/2/4
f 385/2/4 372/2/4 386/2/4
f 380/2/4 381/2/4 387/2/4
f 382/2/4 383/2/4 387/2/4
f 384/2/4 385/2/4 387/2/4
f 383/2/4 384/2/4 387/2/4
f 381/2/4 382/2/4 387/2/4
f 387/2/4 385/2/4 388/2/4
f 388/2/4 385/2/4 389/2/4
f 389/2/4 385/2/4 390/2/4
f 380/2/4 387/2/4 391/2/4
f 391/2/4 387/2/4 392/2/4
f 392/2/4 387/2/4 393/2/4
f 388/5/4 389/5/4 396/5/4
f 396/5/4 389/5/4 397/5/4
f 397/5/4 389/5/4 398/5/4
f 390/2/4 385/2/4 400/2/4
f 400/2/4 385/2/4 401/2/4
f 401/2/4 385/2/4 402/2/4
f 393/2/4 394/2/4 403/2/4
f 392/2/4 393/2/4 403/2/4
f 403/2/4 394/2/4 404/2/4
f 395/5/4 396/5/4 405/5/4
f 396/5/4 397/5/4 405/5/4
f 405/5/4 397/5/4 406/5/4
f 397/4/4 398/4/4 407/4/4
f 406/5/4 397/5/4 407/5/4
f 407/4/4 398/4/4 408/4/4
f 400/2/4 401/2/4 409/2/4
f 399/2/4 400/2/4 409/2/4
f 409/2/4 401/2/4 410/2/4
f 407/5/4 408/5/4 411/5/4
f 406/5/4 407/5/4 411/5/4
f 411/5/4 408/5/4 412/5/4
f 404/2/4 394/2/4 416/2/4
f 413/5/4 414/5/4 418/5/4
f 418/5/4 414/5/4 419/5/4
f 419/5/4 414/5/4 420/5/4
f 399/2/4 409/2/4 421/2/4
f 415/2/4 416/2/4 424/2/4
f 416/2/4 394/2/4 425/2/4
f 424/2/4 416/2/4 425/2/4
f 425/2/4 394/2/4 426/2/4
f 418/5/4 419/5/4 427/5/4
f 417/5/4 418/5/4 427/5/4
f 427/5/4 419/5/4 428/5/4
f 419/4/4 420/4/4 429/4/4
f 428/5/4 419/5/4 429/5/4
f 429/4/4 420/4/4 430/4/4
f 421/2/4 422/2/4 431/2/4
f 399/2/4 421/2/4 431/2/4
f 431/2/4 422/2/4 432/2/4
f 432/2/4 422/2/4 433/2/4
f 423/2/4 424/2/4 435/2/4
f 424/2/4 425/2/4 435/2/4
f 429/5/4 430/5/4 436/5/4
f 428/5/4 429/5/4 436/5/4
f 436/5/4 430/5/4 437/5/4
f 432/2/4 433/2/4 438/2/4
f 433/2/4 434/2/4 438/2/4
f 436/2/4 437/2/4 440/2/4
f 437/2/4 438/2/4 440/2/4
f 435/2/4 436/2/4 440/2/4
f 423/2/4 435/2/4 440/2/4
f 440/2/4 438/2/4 441/2/4
f 441/2/4 438/2/4 442/2/4
f 442/2/4 438/2/4 443/2/4
f 438/2/4 434/2/4 444/2/4
f 443/2/4 438/2/4 444/2/4
f 444/2/4 434/2/4 445/2/4
f 439/2/4 440/2/4 447/2/4
f 440/2/4 441/2/4 447/2/4
f 447/2/4 441/2/4 448/2/4
f 442/2/4 443/2/4 449/2/4
f 449/2/4 443/2/4 450/2/4
f 444/2/4 445/2/4 451/2/4
f 445/2/4 446/2/4 451/2/4
f 451/2/4 446/2/4 452/2/4
f 439/2/4 447/2/4 453/2/4
f 453/2/4 447/2/4 454/2/4
f 452/2/4 446/2/4 455/2/4
f 455/2/4 446/2/4 456/2/4
f 461/2/5 458/2/5 457/2/5
f 462/2/5 458/2/5 461/2/5
f 463/2/5 460/2/5 459/2/5
f 464/2/5 460/2/5 463/2/5
f 469/2/5 466/2/5 465/2/5
f 470/2/5 466/2/5 469/2/5
f 471/2/5 468/2/5 467/2/5
f 472/2/5 468/2/5 471/2/5
f 477/2/5 474/2/5 473/2/5
f 478/2/5 474/2/5 477/2/5
f 479/2/5 476/2/5 475/2/5
f 480/2/5 476/2/5 479/2/5
f 483/2/5 482/2/5 481/2/5
f 484/2/5 482/2/5 483/2/5
f 493/5/5 488/5/5 487/5/5
f 494/5/5 488/5/5 493/5/5
f 495/5/5 490/5/5 489/5/5
f 496/5/5 490/5/5 495/5/5
f 501/2/5 486/2/5 485/2/5
f 502/2/5 486/2/5 501/2/5
f 503/5/5 498/5/5 497/5/5
f 504/5/5 498/5/5 503/5/5
f 505/5/5 500/5/5 499/5/5
f 506/5/5 500/5/5 505/5/5
f 507/2/5 492/2/5 491/2/5
f 508/2/5 492/2/5 507/2/5
f 517/5/5 510/5/5 509/5/5
f 518/5/5 510/5/5 517/5/5
f 519/5/5 512/5/5 511/5/5
f 520/5/5 512/5/5 519/5/5
f 521/5/5 514/5/5 513/5/5
f 522/5/5 514/5/5 521/5/5
f 523/5/5 516/5/5 515/5/5
f 524/5/5 516/5/5 523/5/5
f 533/5/5 526/5/5 525/5/5
f 534/5/5 526/5/5 533/5/5
f 535/5/5 528/5/5 527/5/5
f 536/5/5 528/5/5 535/5/5
f 537/5/5 530/5/5 529/5/5
f 538/5/5 530/5/5 537/5/5
f 539/5/5 532/5/5 531/5/5
f 540/5/5 532/5/5 539/5/5
f 543/2/5 542/2/5 541/2/5
f 544/2/5 542/2/5 543/2/5
f 547/2/5 546/2/5 545/2/5
f 548/2/5 546/2/5 547/2/5
f 553/2/5 550/2/5 549/2/5
f 554/2/5 550/2/5 553/2/5
f 555/2/5 552/2/5 551/2/5
f 556/2/5 552/2/5 555/2/5
f 561/2/5 558/2/5 557/2/5
f 562/2/5 558/2/5 561/2/5
f 563/2/5 560/2/5 559/2/5
f 564/2/5 560/2/5 563/2/5
f 569/2/5 566/2/5 565/2/5
f 570/2/5 566/2/5 569/2/5
f 571/2/5 568/2/5 567/2/5
f 572/2/5 568/2/5 571/2/5
f 577/2/5 574/2/5 573/2/5
f 578/2/5 574/2/5 577/2/5
f 579/2/5 576/2/5 575/2/5
f 580/2/5 576/2/5 579/2/5
f 581/2/6 582/2/6 585/2/6
f 585/2/6 582/2/6 586/2/6
f 583/2/6 584/2/6 587/2/6
f 587/2/6 584/2/6 588/2/6
f 589/2/6 590/2/6 593/2/6
f 593/2/6 590/2/6 594/2/6
f 591/2/6 592/2/6 595/2/6
f 595/2/6 592/2/6 596/2/6
f 597/2/6 598/2/6 601/2/6
f 601/2/6 598/2/6 602/2/6
f 599/2/6 600/2/6 603/2/6
f 603/2/6 600/2/6 604/2/6
f 605/2/6 606/2/6 609/2/6
f 609/2/6 606/2/6 610/2/6
f 607/2/6 608/2/6 611/2/6
f 611/2/6 608/2/6 612/2/6
f 613/2/6 614/2/6 615/2/6
f 615/2/6 614/2/6 616/2/6
f 617/2/6 618/2/6 619/2/6
f 619/2/6 618/2/6 620/2/6
f 623/5/6 624/5/6 633/5/6
f 624/4/6 625/4/6 634/4/6
f 633/5/6 624/5/6 634/5/6
f 625/5/6 626/5/6 635/5/6
f 634/4/6 625/4/6 635/4/6
f 635/5/6 626/5/6 636/5/6
f 627/5/6 628/5/6 637/5/6
f 628/4/6 629/4/6 638/4/6
f 637/5/6 628/5/6 638/5/6
f 629/5/6 630/5/6 639/5/6
f 638/4/6 629/4/6 639/4/6
f 639/5/6 630/5/6 640/5/6
f 621/2/6 622/2/6 649/2/6
f 649/2/6 622/2/6 650/2/6
f 641/5/6 642/5/6 651/5/6
f 642/4/6 643/4/6 652/4/6
f 651/5/6 642/5/6 652/5/6
f 643/5/6 644/5/6 653/5/6
f 652/4/6 643/4/6 653/4/6
f 653/5/6 644/5/6 654/5/6
f 645/5/6 646/5/6 655/5/6
f 646/4/6 647/4/6 656/4/6
f 655/5/6 646/5/6 656/5/6
f 647/5/6 648/5/6 657/5/6
f 656/4/6 647/4/6 657/4/6
f 657/5/6 648/5/6 658/5/6
f 631/2/6 632/2/6 659/2/6
f 659/2/6 632/2/6 660/2/6
f 661/2/6 662/2/6 663/2/6
f 663/2/6 662/2/6 664/2/6
f 665/2/6 666/2/6 669/2/6
f 669/2/6 666/2/6 670/2/6
f 667/2/6 668/2/6 671/2/6
f 671/2/6 668/2/6 672/2/6
f 673/2/6 674/2/6 677/2/6
f 677/2/6 674/2/6 678/2/6
f 675/2/6 676/2/6 679/2/6
f 679/2/6 676/2/6 680/2/6
f 681/2/6 682/2/6 685/2/6
f 685/2/6 682/2/6 686/2/6
f 683/2/6 684/2/6 687/2/6
f 687/2/6 684/2/6 688/2/6
