# MagicaVoxel @ Ephtracy

# material
mtllib new_gage03.mtl
usemtl palette

# normals
vn -1 0 0
vn 1 0 0
vn 0 0 1
vn 0 0 -1
vn 0 -1 0
vn 0 1 0

# texcoords
vt 0.138672 0.5
vt 0.705078 0.5
vt 0.857422 0.5
vt 0.962891 0.5
vt 0.966797 0.5
vt 0.986328 0.5
vt 0.994141 0.5

# verts
v -13 4 27
v -13 4 22
v -13 16 27
v -13 16 22
v -12 4 29
v -12 4 27
v -12 4 22
v -12 4 20
v -12 16 29
v -12 16 27
v -12 16 22
v -12 16 20
v -11 4 30
v -11 4 29
v -11 4 20
v -11 4 19
v -11 16 30
v -11 16 29
v -11 16 20
v -11 16 19
v -10 4 31
v -10 4 30
v -10 4 19
v -10 4 18
v -10 16 31
v -10 16 30
v -10 16 19
v -10 16 18
v -8 4 32
v -8 4 31
v -8 4 18
v -8 4 17
v -8 16 32
v -8 16 31
v -8 16 18
v -8 16 17
v -6 14 25
v -6 14 24
v -6 15 25
v -6 15 24
v -4 14 28
v -4 14 27
v -4 14 22
v -4 14 21
v -4 15 28
v -4 15 27
v -4 15 22
v -4 15 21
v -3 14 27
v -3 14 26
v -3 14 23
v -3 14 22
v -3 15 30
v -3 15 29
v -3 15 27
v -3 15 26
v -3 15 23
v -3 15 22
v -3 15 20
v -3 15 19
v -3 16 30
v -3 16 29
v -3 16 20
v -3 16 19
v -2 1 19
v -2 1 -31
v -2 4 19
v -2 4 18
v -2 6 17
v -2 6 -31
v -2 10 18
v -2 10 17
v -2 14 26
v -2 14 23
v -2 15 29
v -2 15 28
v -2 15 26
v -2 15 23
v -2 15 21
v -2 15 20
v -2 16 29
v -2 16 28
v -2 16 21
v -2 16 20
v -1 15 28
v -1 15 27
v -1 15 22
v -1 15 21
v -1 16 28
v -1 16 27
v -1 16 22
v -1 16 21
v 0 15 27
v 0 15 22
v 0 16 27
v 0 16 22
v 9 2 17
v 9 2 -27
v 9 3 17
v 9 3 -27
v -11 15 27
v -11 15 22
v -11 16 27
v -11 16 22
v -10 15 28
v -10 15 27
v -10 15 22
v -10 15 21
v -10 16 28
v -10 16 27
v -10 16 22
v -10 16 21
v -9 14 26
v -9 14 23
v -9 15 29
v -9 15 28
v -9 15 26
v -9 15 23
v -9 15 21
v -9 15 20
v -9 16 29
v -9 16 28
v -9 16 21
v -9 16 20
v -8 14 27
v -8 14 26
v -8 14 23
v -8 14 22
v -8 15 30
v -8 15 29
v -8 15 27
v -8 15 26
v -8 15 23
v -8 15 22
v -8 15 20
v -8 15 19
v -8 16 30
v -8 16 29
v -8 16 20
v -8 16 19
v -7 14 28
v -7 14 27
v -7 14 22
v -7 14 21
v -7 15 28
v -7 15 27
v -7 15 22
v -7 15 21
v -5 14 25
v -5 14 24
v -5 15 25
v -5 15 24
v -3 4 32
v -3 4 31
v -3 4 18
v -3 4 17
v -3 16 32
v -3 16 31
v -3 16 18
v -3 16 17
v -1 1 19
v -1 1 18
v -1 4 31
v -1 4 30
v -1 4 19
v -1 10 18
v -1 16 31
v -1 16 30
v -1 16 19
v -1 16 18
v 0 4 30
v 0 4 29
v 0 4 20
v 0 4 19
v 0 16 30
v 0 16 29
v 0 16 20
v 0 16 19
v 1 2 17
v 1 2 -27
v 1 4 29
v 1 4 27
v 1 4 22
v 1 4 20
v 1 5 17
v 1 5 16
v 1 5 13
v 1 5 12
v 1 5 9
v 1 5 8
v 1 5 5
v 1 5 4
v 1 5 1
v 1 5 -0
v 1 5 -3
v 1 5 -4
v 1 5 -7
v 1 5 -8
v 1 5 -11
v 1 5 -12
v 1 5 -15
v 1 5 -16
v 1 5 -19
v 1 5 -20
v 1 5 -23
v 1 5 -24
v 1 6 16
v 1 6 13
v 1 6 12
v 1 6 9
v 1 6 8
v 1 6 5
v 1 6 4
v 1 6 1
v 1 6 -0
v 1 6 -3
v 1 6 -4
v 1 6 -7
v 1 6 -8
v 1 6 -11
v 1 6 -12
v 1 6 -15
v 1 6 -16
v 1 6 -19
v 1 6 -20
v 1 6 -23
v 1 6 -24
v 1 6 -27
v 1 16 29
v 1 16 27
v 1 16 22
v 1 16 20
v 2 4 27
v 2 4 22
v 2 16 27
v 2 16 22
v 3 5 17
v 3 5 16
v 3 5 13
v 3 5 12
v 3 5 5
v 3 5 4
v 3 5 1
v 3 5 -0
v 3 5 -7
v 3 5 -8
v 3 5 -11
v 3 5 -12
v 3 5 -19
v 3 5 -20
v 3 5 -23
v 3 5 -24
v 3 6 17
v 3 6 16
v 3 6 13
v 3 6 12
v 3 6 5
v 3 6 4
v 3 6 1
v 3 6 -0
v 3 6 -7
v 3 6 -8
v 3 6 -11
v 3 6 -12
v 3 6 -19
v 3 6 -20
v 3 6 -23
v 3 6 -24
v 5 5 9
v 5 5 8
v 5 5 -3
v 5 5 -4
v 5 5 -15
v 5 5 -16
v 5 6 9
v 5 6 8
v 5 6 -3
v 5 6 -4
v 5 6 -15
v 5 6 -16
v 11 1 17
v 11 1 -31
v 11 3 17
v 11 3 -27
v 11 6 -27
v 11 6 -31
v 12 1 18
v 12 1 17
v 12 10 18
v 12 10 17
v -8 4 32
v -8 16 32
v -3 4 32
v -3 16 32
v -10 4 31
v -10 16 31
v -8 4 31
v -8 16 31
v -3 4 31
v -3 16 31
v -1 4 31
v -1 16 31
v -11 4 30
v -11 16 30
v -10 4 30
v -10 16 30
v -1 4 30
v -1 16 30
v 0 4 30
v 0 16 30
v -12 4 29
v -12 16 29
v -11 4 29
v -11 16 29
v 0 4 29
v 0 16 29
v 1 4 29
v 1 16 29
v -13 4 27
v -13 16 27
v -12 4 27
v -12 16 27
v 1 4 27
v 1 16 27
v 2 4 27
v 2 16 27
v -6 14 25
v -6 15 25
v -5 14 25
v -5 15 25
v -9 14 23
v -9 15 23
v -8 14 23
v -8 15 23
v -3 14 23
v -3 15 23
v -2 14 23
v -2 15 23
v -11 15 22
v -11 16 22
v -10 15 22
v -10 16 22
v -8 14 22
v -8 15 22
v -7 14 22
v -7 15 22
v -4 14 22
v -4 15 22
v -3 14 22
v -3 15 22
v -1 15 22
v -1 16 22
v 0 15 22
v 0 16 22
v -10 15 21
v -10 16 21
v -9 15 21
v -9 16 21
v -7 14 21
v -7 15 21
v -4 14 21
v -4 15 21
v -2 15 21
v -2 16 21
v -1 15 21
v -1 16 21
v -9 15 20
v -9 16 20
v -8 15 20
v -8 16 20
v -3 15 20
v -3 16 20
v -2 15 20
v -2 16 20
v -8 15 19
v -8 16 19
v -3 15 19
v -3 16 19
v -2 1 19
v -2 4 19
v -1 1 19
v -1 4 19
v -1 1 18
v -1 10 18
v 12 1 18
v 12 10 18
v 1 5 13
v 1 6 13
v 3 5 13
v 3 6 13
v 1 5 9
v 1 6 9
v 5 5 9
v 5 6 9
v 1 5 5
v 1 6 5
v 3 5 5
v 3 6 5
v 1 5 1
v 1 6 1
v 3 5 1
v 3 6 1
v 1 5 -3
v 1 6 -3
v 5 5 -3
v 5 6 -3
v 1 5 -7
v 1 6 -7
v 3 5 -7
v 3 6 -7
v 1 5 -11
v 1 6 -11
v 3 5 -11
v 3 6 -11
v 1 5 -15
v 1 6 -15
v 5 5 -15
v 5 6 -15
v 1 5 -19
v 1 6 -19
v 3 5 -19
v 3 6 -19
v 1 5 -23
v 1 6 -23
v 3 5 -23
v 3 6 -23
v 1 2 -27
v 1 6 -27
v 9 2 -27
v 9 3 -27
v 11 3 -27
v 11 6 -27
v -8 15 30
v -8 16 30
v -3 15 30
v -3 16 30
v -9 15 29
v -9 16 29
v -8 15 29
v -8 16 29
v -3 15 29
v -3 16 29
v -2 15 29
v -2 16 29
v -10 15 28
v -10 16 28
v -9 15 28
v -9 16 28
v -7 14 28
v -7 15 28
v -4 14 28
v -4 15 28
v -2 15 28
v -2 16 28
v -1 15 28
v -1 16 28
v -11 15 27
v -11 16 27
v -10 15 27
v -10 16 27
v -8 14 27
v -8 15 27
v -7 14 27
v -7 15 27
v -4 14 27
v -4 15 27
v -3 14 27
v -3 15 27
v -1 15 27
v -1 16 27
v 0 15 27
v 0 16 27
v -9 14 26
v -9 15 26
v -8 14 26
v -8 15 26
v -3 14 26
v -3 15 26
v -2 14 26
v -2 15 26
v -6 14 24
v -6 15 24
v -5 14 24
v -5 15 24
v -13 4 22
v -13 16 22
v -12 4 22
v -12 16 22
v 1 4 22
v 1 16 22
v 2 4 22
v 2 16 22
v -12 4 20
v -12 16 20
v -11 4 20
v -11 16 20
v 0 4 20
v 0 16 20
v 1 4 20
v 1 16 20
v -11 4 19
v -11 16 19
v -10 4 19
v -10 16 19
v -1 4 19
v -1 16 19
v 0 4 19
v 0 16 19
v -10 4 18
v -10 16 18
v -8 4 18
v -8 16 18
v -3 4 18
v -3 16 18
v -2 4 18
v -2 10 18
v -1 10 18
v -1 16 18
v -8 4 17
v -8 16 17
v -3 4 17
v -3 16 17
v -2 6 17
v -2 10 17
v 1 2 17
v 1 5 17
v 1 6 17
v 3 5 17
v 3 6 17
v 9 2 17
v 9 3 17
v 11 1 17
v 11 3 17
v 12 1 17
v 12 10 17
v 1 5 16
v 1 6 16
v 3 5 16
v 3 6 16
v 1 5 12
v 1 6 12
v 3 5 12
v 3 6 12
v 1 5 8
v 1 6 8
v 5 5 8
v 5 6 8
v 1 5 4
v 1 6 4
v 3 5 4
v 3 6 4
v 1 5 -0
v 1 6 -0
v 3 5 -0
v 3 6 -0
v 1 5 -4
v 1 6 -4
v 5 5 -4
v 5 6 -4
v 1 5 -8
v 1 6 -8
v 3 5 -8
v 3 6 -8
v 1 5 -12
v 1 6 -12
v 3 5 -12
v 3 6 -12
v 1 5 -16
v 1 6 -16
v 5 5 -16
v 5 6 -16
v 1 5 -20
v 1 6 -20
v 3 5 -20
v 3 6 -20
v 1 5 -24
v 1 6 -24
v 3 5 -24
v 3 6 -24
v -2 1 -31
v -2 6 -31
v 11 1 -31
v 11 6 -31
v -2 1 19
v -1 1 19
v -1 1 18
v 12 1 18
v 1 1 17
v 9 1 17
v 11 1 17
v 12 1 17
v 1 1 -27
v 9 1 -27
v -2 1 -31
v 11 1 -31
v -8 4 32
v -3 4 32
v -10 4 31
v -8 4 31
v -3 4 31
v -1 4 31
v -11 4 30
v -10 4 30
v -1 4 30
v 0 4 30
v -12 4 29
v -11 4 29
v 0 4 29
v 1 4 29
v -13 4 27
v -12 4 27
v 1 4 27
v 2 4 27
v -13 4 22
v -12 4 22
v 1 4 22
v 2 4 22
v -12 4 20
v -11 4 20
v 0 4 20
v 1 4 20
v -11 4 19
v -10 4 19
v -2 4 19
v -1 4 19
v 0 4 19
v -10 4 18
v -8 4 18
v -3 4 18
v -2 4 18
v -8 4 17
v -3 4 17
v 1 5 17
v 3 5 17
v 1 5 16
v 3 5 16
v 1 5 13
v 3 5 13
v 1 5 12
v 3 5 12
v 1 5 9
v 5 5 9
v 1 5 8
v 5 5 8
v 1 5 5
v 3 5 5
v 1 5 4
v 3 5 4
v 1 5 1
v 3 5 1
v 1 5 -0
v 3 5 -0
v 1 5 -3
v 5 5 -3
v 1 5 -4
v 5 5 -4
v 1 5 -7
v 3 5 -7
v 1 5 -8
v 3 5 -8
v 1 5 -11
v 3 5 -11
v 1 5 -12
v 3 5 -12
v 1 5 -15
v 5 5 -15
v 1 5 -16
v 5 5 -16
v 1 5 -19
v 3 5 -19
v 1 5 -20
v 3 5 -20
v 1 5 -23
v 3 5 -23
v 1 5 -24
v 3 5 -24
v 1 2 17
v 9 2 17
v 1 2 -27
v 9 2 -27
v 9 3 17
v 11 3 17
v 9 3 -27
v 11 3 -27
v -2 6 17
v 1 6 17
v 3 6 17
v 1 6 16
v 3 6 16
v 1 6 13
v 3 6 13
v 1 6 12
v 3 6 12
v 1 6 9
v 5 6 9
v 1 6 8
v 5 6 8
v 1 6 5
v 3 6 5
v 1 6 4
v 3 6 4
v 1 6 1
v 3 6 1
v 1 6 -0
v 3 6 -0
v 1 6 -3
v 5 6 -3
v 1 6 -4
v 5 6 -4
v 1 6 -7
v 3 6 -7
v 1 6 -8
v 3 6 -8
v 1 6 -11
v 3 6 -11
v 1 6 -12
v 3 6 -12
v 1 6 -15
v 5 6 -15
v 1 6 -16
v 5 6 -16
v 1 6 -19
v 3 6 -19
v 1 6 -20
v 3 6 -20
v 1 6 -23
v 3 6 -23
v 1 6 -24
v 3 6 -24
v 1 6 -27
v 11 6 -27
v -2 6 -31
v 11 6 -31
v -2 10 18
v -1 10 18
v 12 10 18
v -2 10 17
v 12 10 17
v -7 14 28
v -4 14 28
v -8 14 27
v -7 14 27
v -4 14 27
v -3 14 27
v -9 14 26
v -8 14 26
v -3 14 26
v -2 14 26
v -6 14 25
v -5 14 25
v -6 14 24
v -5 14 24
v -9 14 23
v -8 14 23
v -3 14 23
v -2 14 23
v -8 14 22
v -7 14 22
v -4 14 22
v -3 14 22
v -7 14 21
v -4 14 21
v -8 15 30
v -3 15 30
v -9 15 29
v -8 15 29
v -3 15 29
v -2 15 29
v -10 15 28
v -9 15 28
v -7 15 28
v -4 15 28
v -2 15 28
v -1 15 28
v -11 15 27
v -10 15 27
v -8 15 27
v -7 15 27
v -4 15 27
v -3 15 27
v -1 15 27
v 0 15 27
v -9 15 26
v -8 15 26
v -3 15 26
v -2 15 26
v -6 15 25
v -5 15 25
v -6 15 24
v -5 15 24
v -9 15 23
v -8 15 23
v -3 15 23
v -2 15 23
v -11 15 22
v -10 15 22
v -8 15 22
v -7 15 22
v -4 15 22
v -3 15 22
v -1 15 22
v 0 15 22
v -10 15 21
v -9 15 21
v -7 15 21
v -4 15 21
v -2 15 21
v -1 15 21
v -9 15 20
v -8 15 20
v -3 15 20
v -2 15 20
v -8 15 19
v -3 15 19
v -8 16 32
v -3 16 32
v -10 16 31
v -8 16 31
v -3 16 31
v -1 16 31
v -11 16 30
v -10 16 30
v -8 16 30
v -3 16 30
v -1 16 30
v 0 16 30
v -12 16 29
v -11 16 29
v -9 16 29
v -8 16 29
v -3 16 29
v -2 16 29
v 0 16 29
v 1 16 29
v -10 16 28
v -9 16 28
v -2 16 28
v -1 16 28
v -13 16 27
v -12 16 27
v -11 16 27
v -10 16 27
v -1 16 27
v 0 16 27
v 1 16 27
v 2 16 27
v -13 16 22
v -12 16 22
v -11 16 22
v -10 16 22
v -1 16 22
v 0 16 22
v 1 16 22
v 2 16 22
v -10 16 21
v -9 16 21
v -2 16 21
v -1 16 21
v -12 16 20
v -11 16 20
v -9 16 20
v -8 16 20
v -3 16 20
v -2 16 20
v 0 16 20
v 1 16 20
v -11 16 19
v -10 16 19
v -8 16 19
v -3 16 19
v -1 16 19
v 0 16 19
v -10 16 18
v -8 16 18
v -3 16 18
v -1 16 18
v -8 16 17
v -3 16 17

# faces
f 3/4/1 2/4/1 1/4/1
f 4/4/1 2/4/1 3/4/1
f 9/4/1 6/4/1 5/4/1
f 10/4/1 6/4/1 9/4/1
f 11/4/1 8/4/1 7/4/1
f 12/4/1 8/4/1 11/4/1
f 17/4/1 14/4/1 13/4/1
f 18/4/1 14/4/1 17/4/1
f 19/4/1 16/4/1 15/4/1
f 20/4/1 16/4/1 19/4/1
f 25/4/1 22/4/1 21/4/1
f 26/4/1 22/4/1 25/4/1
f 27/4/1 24/4/1 23/4/1
f 28/4/1 24/4/1 27/4/1
f 33/4/1 30/4/1 29/4/1
f 34/4/1 30/4/1 33/4/1
f 35/4/1 32/4/1 31/4/1
f 36/4/1 32/4/1 35/4/1
f 39/4/1 38/4/1 37/4/1
f 40/4/1 38/4/1 39/4/1
f 45/4/1 42/4/1 41/4/1
f 46/4/1 42/4/1 45/4/1
f 47/4/1 44/4/1 43/4/1
f 48/4/1 44/4/1 47/4/1
f 55/4/1 50/4/1 49/4/1
f 56/4/1 50/4/1 55/4/1
f 57/4/1 52/4/1 51/4/1
f 58/4/1 52/4/1 57/4/1
f 61/4/1 54/4/1 53/4/1
f 62/4/1 54/4/1 61/4/1
f 63/4/1 60/4/1 59/4/1
f 64/4/1 60/4/1 63/4/1
f 67/4/1 66/4/1 65/4/1
f 68/4/1 66/4/1 67/4/1
f 69/4/1 66/4/1 68/4/1
f 70/4/1 66/4/1 69/4/1
f 71/4/1 69/4/1 68/4/1
f 72/4/1 69/4/1 71/4/1
f 77/4/1 74/4/1 73/4/1
f 78/4/1 74/4/1 77/4/1
f 81/4/1 76/4/1 75/4/1
f 82/4/1 76/4/1 81/4/1
f 83/4/1 80/4/1 79/4/1
f 84/4/1 80/4/1 83/4/1
f 89/4/1 86/4/1 85/4/1
f 90/4/1 86/4/1 89/4/1
f 91/4/1 88/4/1 87/4/1
f 92/4/1 88/4/1 91/4/1
f 95/4/1 94/4/1 93/4/1
f 96/4/1 94/4/1 95/4/1
f 99/4/1 98/4/1 97/4/1
f 100/4/1 98/4/1 99/4/1
f 101/4/2 102/4/2 103/4/2
f 103/4/2 102/4/2 104/4/2
f 105/4/2 106/4/2 109/4/2
f 109/4/2 106/4/2 110/4/2
f 107/4/2 108/4/2 111/4/2
f 111/4/2 108/4/2 112/4/2
f 113/4/2 114/4/2 117/4/2
f 117/4/2 114/4/2 118/4/2
f 115/4/2 116/4/2 121/4/2
f 121/4/2 116/4/2 122/4/2
f 119/4/2 120/4/2 123/4/2
f 123/4/2 120/4/2 124/4/2
f 125/4/2 126/4/2 131/4/2
f 131/4/2 126/4/2 132/4/2
f 127/4/2 128/4/2 133/4/2
f 133/4/2 128/4/2 134/4/2
f 129/4/2 130/4/2 137/4/2
f 137/4/2 130/4/2 138/4/2
f 135/4/2 136/4/2 139/4/2
f 139/4/2 136/4/2 140/4/2
f 141/4/2 142/4/2 145/4/2
f 145/4/2 142/4/2 146/4/2
f 143/4/2 144/4/2 147/4/2
f 147/4/2 144/4/2 148/4/2
f 149/4/2 150/4/2 151/4/2
f 151/4/2 150/4/2 152/4/2
f 153/4/2 154/4/2 157/4/2
f 157/4/2 154/4/2 158/4/2
f 155/4/2 156/4/2 159/4/2
f 159/4/2 156/4/2 160/4/2
f 161/4/2 162/4/2 165/4/2
f 165/4/2 162/4/2 166/4/2
f 163/4/2 164/4/2 167/4/2
f 167/4/2 164/4/2 168/4/2
f 165/4/2 166/4/2 169/4/2
f 169/4/2 166/4/2 170/4/2
f 171/4/2 172/4/2 175/4/2
f 175/4/2 172/4/2 176/4/2
f 173/4/2 174/4/2 177/4/2
f 177/4/2 174/4/2 178/4/2
f 179/4/2 180/4/2 185/4/2
f 185/4/2 180/4/2 186/4/2
f 186/4/2 180/4/2 187/4/2
f 187/4/2 180/4/2 188/4/2
f 188/4/2 180/4/2 189/4/2
f 189/4/2 180/4/2 190/4/2
f 190/4/2 180/4/2 191/4/2
f 191/4/2 180/4/2 192/4/2
f 192/4/2 180/4/2 193/4/2
f 193/4/2 180/4/2 194/4/2
f 194/4/2 180/4/2 195/4/2
f 195/4/2 180/4/2 196/4/2
f 196/4/2 180/4/2 197/4/2
f 197/4/2 180/4/2 198/4/2
f 198/4/2 180/4/2 199/4/2
f 199/4/2 180/4/2 200/4/2
f 200/4/2 180/4/2 201/4/2
f 201/4/2 180/4/2 202/4/2
f 202/4/2 180/4/2 203/4/2
f 203/4/2 180/4/2 204/4/2
f 204/4/2 180/4/2 205/4/2
f 205/4/2 180/4/2 206/4/2
f 186/4/2 187/4/2 207/4/2
f 207/4/2 187/4/2 208/4/2
f 188/4/2 189/4/2 209/4/2
f 209/4/2 189/4/2 210/4/2
f 190/4/2 191/4/2 211/4/2
f 211/4/2 191/4/2 212/4/2
f 192/4/2 193/4/2 213/4/2
f 213/4/2 193/4/2 214/4/2
f 194/4/2 195/4/2 215/4/2
f 215/4/2 195/4/2 216/4/2
f 196/4/2 197/4/2 217/4/2
f 217/4/2 197/4/2 218/4/2
f 198/4/2 199/4/2 219/4/2
f 219/4/2 199/4/2 220/4/2
f 200/4/2 201/4/2 221/4/2
f 221/4/2 201/4/2 222/4/2
f 202/4/2 203/4/2 223/4/2
f 223/4/2 203/4/2 224/4/2
f 204/4/2 205/4/2 225/4/2
f 225/4/2 205/4/2 226/4/2
f 206/4/2 180/4/2 227/4/2
f 227/4/2 180/4/2 228/4/2
f 181/4/2 182/4/2 229/4/2
f 229/4/2 182/4/2 230/4/2
f 183/4/2 184/4/2 231/4/2
f 231/4/2 184/4/2 232/4/2
f 233/4/2 234/4/2 235/4/2
f 235/4/2 234/4/2 236/4/2
f 237/7/2 238/7/2 253/7/2
f 253/7/2 238/7/2 254/7/2
f 239/7/2 240/7/2 255/7/2
f 255/7/2 240/7/2 256/7/2
f 241/7/2 242/7/2 257/7/2
f 257/7/2 242/7/2 258/7/2
f 243/7/2 244/7/2 259/7/2
f 259/7/2 244/7/2 260/7/2
f 245/7/2 246/7/2 261/7/2
f 261/7/2 246/7/2 262/7/2
f 247/7/2 248/7/2 263/7/2
f 263/7/2 248/7/2 264/7/2
f 249/7/2 250/7/2 265/7/2
f 265/7/2 250/7/2 266/7/2
f 251/7/2 252/7/2 267/7/2
f 267/7/2 252/7/2 268/7/2
f 269/7/2 270/7/2 275/7/2
f 275/7/2 270/7/2 276/7/2
f 271/7/2 272/7/2 277/7/2
f 277/7/2 272/7/2 278/7/2
f 273/7/2 274/7/2 279/7/2
f 279/7/2 274/7/2 280/7/2
f 281/4/2 282/4/2 283/4/2
f 283/4/2 282/4/2 284/4/2
f 284/4/2 282/4/2 285/4/2
f 285/4/2 282/4/2 286/4/2
f 287/4/2 288/4/2 289/4/2
f 289/4/2 288/4/2 290/4/2
f 293/4/3 292/4/3 291/4/3
f 294/4/3 292/4/3 293/4/3
f 297/4/3 296/4/3 295/4/3
f 298/4/3 296/4/3 297/4/3
f 301/4/3 300/4/3 299/4/3
f 302/4/3 300/4/3 301/4/3
f 305/4/3 304/4/3 303/4/3
f 306/4/3 304/4/3 305/4/3
f 309/4/3 308/4/3 307/4/3
f 310/4/3 308/4/3 309/4/3
f 313/4/3 312/4/3 311/4/3
f 314/4/3 312/4/3 313/4/3
f 317/4/3 316/4/3 315/4/3
f 318/4/3 316/4/3 317/4/3
f 321/4/3 320/4/3 319/4/3
f 322/4/3 320/4/3 321/4/3
f 325/4/3 324/4/3 323/4/3
f 326/4/3 324/4/3 325/4/3
f 329/4/3 328/4/3 327/4/3
f 330/4/3 328/4/3 329/4/3
f 333/4/3 332/4/3 331/4/3
f 334/4/3 332/4/3 333/4/3
f 337/4/3 336/4/3 335/4/3
f 338/4/3 336/4/3 337/4/3
f 341/4/3 340/4/3 339/4/3
f 342/4/3 340/4/3 341/4/3
f 345/4/3 344/4/3 343/4/3
f 346/4/3 344/4/3 345/4/3
f 349/4/3 348/4/3 347/4/3
f 350/4/3 348/4/3 349/4/3
f 353/4/3 352/4/3 351/4/3
f 354/4/3 352/4/3 353/4/3
f 357/4/3 356/4/3 355/4/3
f 358/4/3 356/4/3 357/4/3
f 361/4/3 360/4/3 359/4/3
f 362/4/3 360/4/3 361/4/3
f 365/4/3 364/4/3 363/4/3
f 366/4/3 364/4/3 365/4/3
f 369/4/3 368/4/3 367/4/3
f 370/4/3 368/4/3 369/4/3
f 373/4/3 372/4/3 371/4/3
f 374/4/3 372/4/3 373/4/3
f 377/4/3 376/4/3 375/4/3
f 378/4/3 376/4/3 377/4/3
f 381/4/3 380/4/3 379/4/3
f 382/4/3 380/4/3 381/4/3
f 385/4/3 384/4/3 383/4/3
f 386/4/3 384/4/3 385/4/3
f 389/7/3 388/7/3 387/7/3
f 390/7/3 388/7/3 389/7/3
f 393/7/3 392/7/3 391/7/3
f 394/7/3 392/7/3 393/7/3
f 397/7/3 396/7/3 395/7/3
f 398/7/3 396/7/3 397/7/3
f 401/7/3 400/7/3 399/7/3
f 402/7/3 400/7/3 401/7/3
f 405/7/3 404/7/3 403/7/3
f 406/7/3 404/7/3 405/7/3
f 409/7/3 408/7/3 407/7/3
f 410/7/3 408/7/3 409/7/3
f 413/7/3 412/7/3 411/7/3
f 414/7/3 412/7/3 413/7/3
f 417/7/3 416/7/3 415/7/3
f 418/7/3 416/7/3 417/7/3
f 421/7/3 420/7/3 419/7/3
f 422/7/3 420/7/3 421/7/3
f 425/7/3 424/7/3 423/7/3
f 426/7/3 424/7/3 425/7/3
f 429/4/3 428/4/3 427/4/3
f 430/4/3 428/4/3 429/4/3
f 431/4/3 428/4/3 430/4/3
f 432/4/3 428/4/3 431/4/3
f 433/4/4 434/4/4 435/4/4
f 435/4/4 434/4/4 436/4/4
f 437/4/4 438/4/4 439/4/4
f 439/4/4 438/4/4 440/4/4
f 441/4/4 442/4/4 443/4/4
f 443/4/4 442/4/4 444/4/4
f 445/4/4 446/4/4 447/4/4
f 447/4/4 446/4/4 448/4/4
f 449/4/4 450/4/4 451/4/4
f 451/4/4 450/4/4 452/4/4
f 453/4/4 454/4/4 455/4/4
f 455/4/4 454/4/4 456/4/4
f 457/4/4 458/4/4 459/4/4
f 459/4/4 458/4/4 460/4/4
f 461/4/4 462/4/4 463/4/4
f 463/4/4 462/4/4 464/4/4
f 465/4/4 466/4/4 467/4/4
f 467/4/4 466/4/4 468/4/4
f 469/4/4 470/4/4 471/4/4
f 471/4/4 470/4/4 472/4/4
f 473/4/4 474/4/4 475/4/4
f 475/4/4 474/4/4 476/4/4
f 477/4/4 478/4/4 479/4/4
f 479/4/4 478/4/4 480/4/4
f 481/4/4 482/4/4 483/4/4
f 483/4/4 482/4/4 484/4/4
f 485/4/4 486/4/4 487/4/4
f 487/4/4 486/4/4 488/4/4
f 489/4/4 490/4/4 491/4/4
f 491/4/4 490/4/4 492/4/4
f 493/4/4 494/4/4 495/4/4
f 495/4/4 494/4/4 496/4/4
f 497/4/4 498/4/4 499/4/4
f 499/4/4 498/4/4 500/4/4
f 501/4/4 502/4/4 503/4/4
f 503/4/4 502/4/4 504/4/4
f 505/4/4 506/4/4 507/4/4
f 507/4/4 506/4/4 508/4/4
f 509/4/4 510/4/4 511/4/4
f 511/4/4 510/4/4 512/4/4
f 513/4/4 514/4/4 515/4/4
f 515/4/4 514/4/4 516/4/4
f 516/4/4 514/4/4 517/4/4
f 517/4/4 514/4/4 518/4/4
f 519/4/4 520/4/4 521/4/4
f 521/4/4 520/4/4 522/4/4
f 523/4/4 524/4/4 527/4/4
f 525/4/4 526/4/4 528/4/4
f 527/4/4 524/4/4 529/4/4
f 525/4/4 528/4/4 530/4/4
f 528/4/4 529/4/4 530/4/4
f 530/4/4 529/4/4 531/4/4
f 531/4/4 529/4/4 533/4/4
f 532/4/4 533/4/4 534/4/4
f 529/4/4 524/4/4 535/4/4
f 534/4/4 533/4/4 535/4/4
f 533/4/4 529/4/4 535/4/4
f 536/7/4 537/7/4 538/7/4
f 538/7/4 537/7/4 539/7/4
f 540/7/4 541/7/4 542/7/4
f 542/7/4 541/7/4 543/7/4
f 544/7/4 545/7/4 546/7/4
f 546/7/4 545/7/4 547/7/4
f 548/7/4 549/7/4 550/7/4
f 550/7/4 549/7/4 551/7/4
f 552/7/4 553/7/4 554/7/4
f 554/7/4 553/7/4 555/7/4
f 556/7/4 557/7/4 558/7/4
f 558/7/4 557/7/4 559/7/4
f 560/7/4 561/7/4 562/7/4
f 562/7/4 561/7/4 563/7/4
f 564/7/4 565/7/4 566/7/4
f 566/7/4 565/7/4 567/7/4
f 568/7/4 569/7/4 570/7/4
f 570/7/4 569/7/4 571/7/4
f 572/7/4 573/7/4 574/7/4
f 574/7/4 573/7/4 575/7/4
f 576/7/4 577/7/4 578/7/4
f 578/7/4 577/7/4 579/7/4
f 580/4/4 581/4/4 582/4/4
f 582/4/4 581/4/4 583/4/4
f 586/4/5 585/4/5 584/4/5
f 588/4/5 587/4/5 586/4/5
f 589/4/5 587/4/5 588/4/5
f 590/4/5 587/4/5 589/4/5
f 591/4/5 587/4/5 590/4/5
f 592/4/5 588/4/5 586/4/5
f 592/6/5 589/6/5 588/6/5
f 593/4/5 590/4/5 589/4/5
f 593/6/5 589/6/5 592/6/5
f 594/4/5 586/4/5 584/4/5
f 594/4/5 592/4/5 586/4/5
f 594/4/5 593/4/5 592/4/5
f 595/4/5 590/4/5 593/4/5
f 595/4/5 593/4/5 594/4/5
f 599/4/5 597/4/5 596/4/5
f 600/4/5 597/4/5 599/4/5
f 603/4/5 599/4/5 598/4/5
f 603/4/5 601/4/5 600/4/5
f 603/4/5 600/4/5 599/4/5
f 604/4/5 601/4/5 603/4/5
f 607/4/5 603/4/5 602/4/5
f 607/4/5 605/4/5 604/4/5
f 607/4/5 604/4/5 603/4/5
f 608/4/5 605/4/5 607/4/5
f 611/4/5 607/4/5 606/4/5
f 611/4/5 609/4/5 608/4/5
f 611/4/5 608/4/5 607/4/5
f 612/4/5 609/4/5 611/4/5
f 614/4/5 611/4/5 610/4/5
f 614/4/5 613/4/5 612/4/5
f 614/4/5 612/4/5 611/4/5
f 615/4/5 613/4/5 614/4/5
f 616/4/5 613/4/5 615/4/5
f 617/4/5 613/4/5 616/4/5
f 618/4/5 616/4/5 615/4/5
f 619/4/5 616/4/5 618/4/5
f 620/4/5 616/4/5 619/4/5
f 621/4/5 616/4/5 620/4/5
f 622/4/5 620/4/5 619/4/5
f 623/4/5 620/4/5 622/4/5
f 624/4/5 620/4/5 623/4/5
f 625/4/5 620/4/5 624/4/5
f 626/4/5 620/4/5 625/4/5
f 627/4/5 624/4/5 623/4/5
f 628/4/5 624/4/5 627/4/5
f 629/4/5 624/4/5 628/4/5
f 630/4/5 624/4/5 629/4/5
f 631/4/5 629/4/5 628/4/5
f 632/4/5 629/4/5 631/4/5
f 635/7/5 634/7/5 633/7/5
f 636/7/5 634/7/5 635/7/5
f 639/7/5 638/7/5 637/7/5
f 640/7/5 638/7/5 639/7/5
f 643/7/5 642/7/5 641/7/5
f 644/7/5 642/7/5 643/7/5
f 647/7/5 646/7/5 645/7/5
f 648/7/5 646/7/5 647/7/5
f 651/7/5 650/7/5 649/7/5
f 652/7/5 650/7/5 651/7/5
f 655/7/5 654/7/5 653/7/5
f 656/7/5 654/7/5 655/7/5
f 659/7/5 658/7/5 657/7/5
f 660/7/5 658/7/5 659/7/5
f 663/7/5 662/7/5 661/7/5
f 664/7/5 662/7/5 663/7/5
f 667/7/5 666/7/5 665/7/5
f 668/7/5 666/7/5 667/7/5
f 671/7/5 670/7/5 669/7/5
f 672/7/5 670/7/5 671/7/5
f 675/7/5 674/7/5 673/7/5
f 676/7/5 674/7/5 675/7/5
f 677/6/6 678/6/6 679/6/6
f 679/6/6 678/6/6 680/6/6
f 681/4/6 682/4/6 683/4/6
f 683/4/6 682/4/6 684/4/6
f 685/4/6 686/4/6 688/4/6
f 686/7/6 687/7/6 688/7/6
f 688/7/6 687/7/6 689/7/6
f 685/4/6 688/4/6 690/4/6
f 685/4/6 690/4/6 692/4/6
f 690/7/6 691/7/6 692/7/6
f 692/7/6 691/7/6 693/7/6
f 685/4/6 692/4/6 694/4/6
f 685/4/6 694/4/6 696/4/6
f 694/7/6 695/7/6 696/7/6
f 696/7/6 695/7/6 697/7/6
f 685/4/6 696/4/6 698/4/6
f 685/4/6 698/4/6 700/4/6
f 698/7/6 699/7/6 700/7/6
f 700/7/6 699/7/6 701/7/6
f 685/4/6 700/4/6 702/4/6
f 685/4/6 702/4/6 704/4/6
f 702/7/6 703/7/6 704/7/6
f 704/7/6 703/7/6 705/7/6
f 685/4/6 704/4/6 706/4/6
f 685/4/6 706/4/6 708/4/6
f 706/7/6 707/7/6 708/7/6
f 708/7/6 707/7/6 709/7/6
f 685/4/6 708/4/6 710/4/6
f 685/4/6 710/4/6 712/4/6
f 710/7/6 711/7/6 712/7/6
f 712/7/6 711/7/6 713/7/6
f 685/4/6 712/4/6 714/4/6
f 685/4/6 714/4/6 716/4/6
f 714/7/6 715/7/6 716/7/6
f 716/7/6 715/7/6 717/7/6
f 685/4/6 716/4/6 718/4/6
f 685/4/6 718/4/6 720/4/6
f 718/7/6 719/7/6 720/7/6
f 720/7/6 719/7/6 721/7/6
f 685/4/6 720/4/6 722/4/6
f 685/4/6 722/4/6 724/4/6
f 722/7/6 723/7/6 724/7/6
f 724/7/6 723/7/6 725/7/6
f 685/4/6 724/4/6 726/4/6
f 685/4/6 726/4/6 728/4/6
f 726/7/6 727/7/6 728/7/6
f 728/7/6 727/7/6 729/7/6
f 685/4/6 728/4/6 730/4/6
f 685/4/6 730/4/6 732/4/6
f 730/4/6 731/4/6 732/4/6
f 732/4/6 731/4/6 733/4/6
f 734/4/6 735/4/6 737/4/6
f 735/4/6 736/4/6 737/4/6
f 737/4/6 736/4/6 738/4/6
f 739/4/6 740/4/6 742/4/6
f 742/4/6 740/4/6 743/4/6
f 741/4/6 742/4/6 746/4/6
f 743/4/6 744/4/6 746/4/6
f 742/4/6 743/4/6 746/4/6
f 746/4/6 744/4/6 747/4/6
f 745/4/6 746/4/6 749/4/6
f 747/4/6 748/4/6 749/4/6
f 746/4/6 747/4/6 749/4/6
f 749/4/6 748/4/6 750/4/6
f 745/4/6 749/4/6 751/4/6
f 750/4/6 748/4/6 752/4/6
f 745/4/6 751/4/6 753/4/6
f 751/4/6 752/4/6 753/4/6
f 753/4/6 752/4/6 754/4/6
f 752/4/6 748/4/6 755/4/6
f 754/4/6 752/4/6 755/4/6
f 755/4/6 748/4/6 756/4/6
f 754/4/6 755/4/6 757/4/6
f 757/4/6 755/4/6 758/4/6
f 758/4/6 755/4/6 759/4/6
f 759/4/6 755/4/6 760/4/6
f 758/4/6 759/4/6 761/4/6
f 761/4/6 759/4/6 762/4/6
f 763/4/6 764/4/6 766/4/6
f 766/4/6 764/4/6 767/4/6
f 765/4/6 766/4/6 770/4/6
f 767/4/6 768/4/6 770/4/6
f 766/4/6 767/4/6 770/4/6
f 770/4/6 768/4/6 771/4/6
f 771/4/6 768/4/6 772/4/6
f 772/4/6 768/4/6 773/4/6
f 769/4/6 770/4/6 776/4/6
f 770/4/6 771/4/6 776/4/6
f 776/4/6 771/4/6 777/4/6
f 777/4/6 771/4/6 778/4/6
f 772/4/6 773/4/6 779/4/6
f 773/4/6 774/4/6 779/4/6
f 779/4/6 774/4/6 780/4/6
f 780/4/6 774/4/6 781/4/6
f 776/4/6 777/4/6 783/4/6
f 775/4/6 776/4/6 783/4/6
f 783/4/6 777/4/6 784/4/6
f 781/4/6 782/4/6 785/4/6
f 780/4/6 781/4/6 785/4/6
f 785/4/6 782/4/6 786/4/6
f 787/4/6 788/4/6 789/4/6
f 789/4/6 788/4/6 790/4/6
f 775/4/6 783/4/6 791/4/6
f 786/4/6 782/4/6 794/4/6
f 775/4/6 791/4/6 795/4/6
f 791/4/6 792/4/6 795/4/6
f 795/4/6 792/4/6 796/4/6
f 796/4/6 792/4/6 797/4/6
f 793/4/6 794/4/6 800/4/6
f 794/4/6 782/4/6 801/4/6
f 800/4/6 794/4/6 801/4/6
f 801/4/6 782/4/6 802/4/6
f 797/4/6 798/4/6 803/4/6
f 796/4/6 797/4/6 803/4/6
f 803/4/6 798/4/6 804/4/6
f 804/4/6 798/4/6 805/4/6
f 799/4/6 800/4/6 806/4/6
f 800/4/6 801/4/6 806/4/6
f 806/4/6 801/4/6 807/4/6
f 807/4/6 801/4/6 808/4/6
f 804/4/6 805/4/6 809/4/6
f 806/4/6 807/4/6 809/4/6
f 805/4/6 806/4/6 809/4/6
f 809/4/6 807/4/6 810/4/6
f 810/4/6 807/4/6 811/4/6
f 811/4/6 807/4/6 812/4/6
f 810/4/6 811/4/6 813/4/6
f 813/4/6 811/4/6 814/4/6
f 815/4/6 816/4/6 818/4/6
f 818/4/6 816/4/6 819/4/6
f 817/4/6 818/4/6 822/4/6
f 819/4/6 820/4/6 822/4/6
f 818/4/6 819/4/6 822/4/6
f 822/4/6 820/4/6 823/4/6
f 823/4/6 820/4/6 824/4/6
f 824/4/6 820/4/6 825/4/6
f 821/4/6 822/4/6 828/4/6
f 822/4/6 823/4/6 828/4/6
f 828/4/6 823/4/6 829/4/6
f 829/4/6 823/4/6 830/4/6
f 824/4/6 825/4/6 831/4/6
f 825/4/6 826/4/6 831/4/6
f 831/4/6 826/4/6 832/4/6
f 832/4/6 826/4/6 833/4/6
f 828/4/6 829/4/6 835/4/6
f 827/4/6 828/4/6 835/4/6
f 835/4/6 829/4/6 836/4/6
f 833/4/6 834/4/6 837/4/6
f 832/4/6 833/4/6 837/4/6
f 837/4/6 834/4/6 838/4/6
f 827/4/6 835/4/6 840/4/6
f 840/4/6 835/4/6 841/4/6
f 841/4/6 835/4/6 842/4/6
f 838/4/6 834/4/6 843/4/6
f 843/4/6 834/4/6 844/4/6
f 844/4/6 834/4/6 845/4/6
f 839/4/6 840/4/6 847/4/6
f 840/4/6 841/4/6 847/4/6
f 847/4/6 841/4/6 848/4/6
f 848/4/6 841/4/6 849/4/6
f 845/4/6 846/4/6 852/4/6
f 844/4/6 845/4/6 852/4/6
f 852/4/6 846/4/6 853/4/6
f 853/4/6 846/4/6 854/4/6
f 849/4/6 850/4/6 855/4/6
f 848/4/6 849/4/6 855/4/6
f 852/4/6 853/4/6 858/4/6
f 851/4/6 852/4/6 858/4/6
f 855/4/6 856/4/6 859/4/6
f 848/4/6 855/4/6 859/4/6
f 859/4/6 856/4/6 860/4/6
f 860/4/6 856/4/6 861/4/6
f 857/4/6 858/4/6 864/4/6
f 858/4/6 853/4/6 865/4/6
f 864/4/6 858/4/6 865/4/6
f 865/4/6 853/4/6 866/4/6
f 861/4/6 862/4/6 867/4/6
f 860/4/6 861/4/6 867/4/6
f 867/4/6 862/4/6 868/4/6
f 868/4/6 862/4/6 869/4/6
f 863/4/6 864/4/6 870/4/6
f 864/4/6 865/4/6 870/4/6
f 870/4/6 865/4/6 871/4/6
f 871/4/6 865/4/6 872/4/6
f 868/4/6 869/4/6 873/4/6
f 870/4/6 871/4/6 873/4/6
f 869/4/6 870/4/6 873/4/6
f 873/4/6 871/4/6 874/4/6
f 874/4/6 871/4/6 875/4/6
f 875/4/6 871/4/6 876/4/6
f 874/4/6 875/4/6 877/4/6
f 877/4/6 875/4/6 878/4/6
