# MagicaVoxel @ Ephtracy

# material
mtllib new_gage02.mtl
usemtl palette

# normals
vn -1 0 0
vn 1 0 0
vn 0 0 1
vn 0 0 -1
vn 0 -1 0
vn 0 1 0

# texcoords
vt 0.748047 0.5

# verts
v -4 0 22
v -4 0 -22
v -4 3 22
v -4 3 21
v -4 3 17
v -4 3 16
v -4 3 12
v -4 3 11
v -4 3 7
v -4 3 6
v -4 3 1
v -4 3 -0
v -4 3 -4
v -4 3 -5
v -4 3 -9
v -4 3 -10
v -4 3 -14
v -4 3 -15
v -4 3 -18
v -4 3 -19
v -4 4 21
v -4 4 17
v -4 4 16
v -4 4 12
v -4 4 11
v -4 4 7
v -4 4 6
v -4 4 1
v -4 4 -0
v -4 4 -4
v -4 4 -5
v -4 4 -9
v -4 4 -10
v -4 4 -14
v -4 4 -15
v -4 4 -18
v -4 4 -19
v -4 4 -22
v 0 3 22
v 0 3 21
v 0 3 17
v 0 3 16
v 0 3 12
v 0 3 11
v 0 3 7
v 0 3 6
v 0 3 1
v 0 3 -0
v 0 3 -4
v 0 3 -5
v 0 3 -9
v 0 3 -10
v 0 3 -14
v 0 3 -15
v 0 3 -18
v 0 3 -19
v 0 4 22
v 0 4 21
v 0 4 17
v 0 4 16
v 0 4 12
v 0 4 11
v 0 4 7
v 0 4 6
v 0 4 1
v 0 4 -0
v 0 4 -4
v 0 4 -5
v 0 4 -9
v 0 4 -10
v 0 4 -14
v 0 4 -15
v 0 4 -18
v 0 4 -19
v 4 0 22
v 4 0 -22
v 4 4 22
v 4 4 -22
v -4 0 22
v -4 3 22
v 0 3 22
v 0 4 22
v 4 0 22
v 4 4 22
v -4 3 21
v -4 4 21
v 0 3 21
v 0 4 21
v -4 3 16
v -4 4 16
v 0 3 16
v 0 4 16
v -4 3 11
v -4 4 11
v 0 3 11
v 0 4 11
v -4 3 6
v -4 4 6
v 0 3 6
v 0 4 6
v -4 3 -0
v -4 4 -0
v 0 3 -0
v 0 4 -0
v -4 3 -5
v -4 4 -5
v 0 3 -5
v 0 4 -5
v -4 3 -10
v -4 4 -10
v 0 3 -10
v 0 4 -10
v -4 3 -15
v -4 4 -15
v 0 3 -15
v 0 4 -15
v -4 3 -19
v -4 4 -19
v 0 3 -19
v 0 4 -19
v -4 3 17
v -4 4 17
v 0 3 17
v 0 4 17
v -4 3 12
v -4 4 12
v 0 3 12
v 0 4 12
v -4 3 7
v -4 4 7
v 0 3 7
v 0 4 7
v -4 3 1
v -4 4 1
v 0 3 1
v 0 4 1
v -4 3 -4
v -4 4 -4
v 0 3 -4
v 0 4 -4
v -4 3 -9
v -4 4 -9
v 0 3 -9
v 0 4 -9
v -4 3 -14
v -4 4 -14
v 0 3 -14
v 0 4 -14
v -4 3 -18
v -4 4 -18
v 0 3 -18
v 0 4 -18
v -4 0 -22
v -4 4 -22
v 4 0 -22
v 4 4 -22
v -4 0 22
v 4 0 22
v -4 0 -22
v 4 0 -22
v -4 3 22
v 0 3 22
v -4 3 21
v 0 3 21
v -4 3 17
v 0 3 17
v -4 3 16
v 0 3 16
v -4 3 12
v 0 3 12
v -4 3 11
v 0 3 11
v -4 3 7
v 0 3 7
v -4 3 6
v 0 3 6
v -4 3 1
v 0 3 1
v -4 3 -0
v 0 3 -0
v -4 3 -4
v 0 3 -4
v -4 3 -5
v 0 3 -5
v -4 3 -9
v 0 3 -9
v -4 3 -10
v 0 3 -10
v -4 3 -14
v 0 3 -14
v -4 3 -15
v 0 3 -15
v -4 3 -18
v 0 3 -18
v -4 3 -19
v 0 3 -19
v 0 4 22
v 4 4 22
v -4 4 21
v 0 4 21
v -4 4 17
v 0 4 17
v -4 4 16
v 0 4 16
v -4 4 12
v 0 4 12
v -4 4 11
v 0 4 11
v -4 4 7
v 0 4 7
v -4 4 6
v 0 4 6
v -4 4 1
v 0 4 1
v -4 4 -0
v 0 4 -0
v -4 4 -4
v 0 4 -4
v -4 4 -5
v 0 4 -5
v -4 4 -9
v 0 4 -9
v -4 4 -10
v 0 4 -10
v -4 4 -14
v 0 4 -14
v -4 4 -15
v 0 4 -15
v -4 4 -18
v 0 4 -18
v -4 4 -19
v 0 4 -19
v -4 4 -22
v 4 4 -22

# faces
f 3/1/1 2/1/1 1/1/1
f 4/1/1 2/1/1 3/1/1
f 5/1/1 2/1/1 4/1/1
f 6/1/1 2/1/1 5/1/1
f 7/1/1 2/1/1 6/1/1
f 8/1/1 2/1/1 7/1/1
f 9/1/1 2/1/1 8/1/1
f 10/1/1 2/1/1 9/1/1
f 11/1/1 2/1/1 10/1/1
f 12/1/1 2/1/1 11/1/1
f 13/1/1 2/1/1 12/1/1
f 14/1/1 2/1/1 13/1/1
f 15/1/1 2/1/1 14/1/1
f 16/1/1 2/1/1 15/1/1
f 17/1/1 2/1/1 16/1/1
f 18/1/1 2/1/1 17/1/1
f 19/1/1 2/1/1 18/1/1
f 20/1/1 2/1/1 19/1/1
f 21/1/1 5/1/1 4/1/1
f 22/1/1 5/1/1 21/1/1
f 23/1/1 7/1/1 6/1/1
f 24/1/1 7/1/1 23/1/1
f 25/1/1 9/1/1 8/1/1
f 26/1/1 9/1/1 25/1/1
f 27/1/1 11/1/1 10/1/1
f 28/1/1 11/1/1 27/1/1
f 29/1/1 13/1/1 12/1/1
f 30/1/1 13/1/1 29/1/1
f 31/1/1 15/1/1 14/1/1
f 32/1/1 15/1/1 31/1/1
f 33/1/1 17/1/1 16/1/1
f 34/1/1 17/1/1 33/1/1
f 35/1/1 19/1/1 18/1/1
f 36/1/1 19/1/1 35/1/1
f 37/1/1 2/1/1 20/1/1
f 38/1/1 2/1/1 37/1/1
f 57/1/1 40/1/1 39/1/1
f 58/1/1 40/1/1 57/1/1
f 59/1/1 42/1/1 41/1/1
f 60/1/1 42/1/1 59/1/1
f 61/1/1 44/1/1 43/1/1
f 62/1/1 44/1/1 61/1/1
f 63/1/1 46/1/1 45/1/1
f 64/1/1 46/1/1 63/1/1
f 65/1/1 48/1/1 47/1/1
f 66/1/1 48/1/1 65/1/1
f 67/1/1 50/1/1 49/1/1
f 68/1/1 50/1/1 67/1/1
f 69/1/1 52/1/1 51/1/1
f 70/1/1 52/1/1 69/1/1
f 71/1/1 54/1/1 53/1/1
f 72/1/1 54/1/1 71/1/1
f 73/1/1 56/1/1 55/1/1
f 74/1/1 56/1/1 73/1/1
f 75/1/2 76/1/2 77/1/2
f 77/1/2 76/1/2 78/1/2
f 81/1/3 80/1/3 79/1/3
f 83/1/3 81/1/3 79/1/3
f 83/1/3 82/1/3 81/1/3
f 84/1/3 82/1/3 83/1/3
f 87/1/3 86/1/3 85/1/3
f 88/1/3 86/1/3 87/1/3
f 91/1/3 90/1/3 89/1/3
f 92/1/3 90/1/3 91/1/3
f 95/1/3 94/1/3 93/1/3
f 96/1/3 94/1/3 95/1/3
f 99/1/3 98/1/3 97/1/3
f 100/1/3 98/1/3 99/1/3
f 103/1/3 102/1/3 101/1/3
f 104/1/3 102/1/3 103/1/3
f 107/1/3 106/1/3 105/1/3
f 108/1/3 106/1/3 107/1/3
f 111/1/3 110/1/3 109/1/3
f 112/1/3 110/1/3 111/1/3
f 115/1/3 114/1/3 113/1/3
f 116/1/3 114/1/3 115/1/3
f 119/1/3 118/1/3 117/1/3
f 120/1/3 118/1/3 119/1/3
f 121/1/4 122/1/4 123/1/4
f 123/1/4 122/1/4 124/1/4
f 125/1/4 126/1/4 127/1/4
f 127/1/4 126/1/4 128/1/4
f 129/1/4 130/1/4 131/1/4
f 131/1/4 130/1/4 132/1/4
f 133/1/4 134/1/4 135/1/4
f 135/1/4 134/1/4 136/1/4
f 137/1/4 138/1/4 139/1/4
f 139/1/4 138/1/4 140/1/4
f 141/1/4 142/1/4 143/1/4
f 143/1/4 142/1/4 144/1/4
f 145/1/4 146/1/4 147/1/4
f 147/1/4 146/1/4 148/1/4
f 149/1/4 150/1/4 151/1/4
f 151/1/4 150/1/4 152/1/4
f 153/1/4 154/1/4 155/1/4
f 155/1/4 154/1/4 156/1/4
f 159/1/5 158/1/5 157/1/5
f 160/1/5 158/1/5 159/1/5
f 161/1/6 162/1/6 163/1/6
f 163/1/6 162/1/6 164/1/6
f 165/1/6 166/1/6 167/1/6
f 167/1/6 166/1/6 168/1/6
f 169/1/6 170/1/6 171/1/6
f 171/1/6 170/1/6 172/1/6
f 173/1/6 174/1/6 175/1/6
f 175/1/6 174/1/6 176/1/6
f 177/1/6 178/1/6 179/1/6
f 179/1/6 178/1/6 180/1/6
f 181/1/6 182/1/6 183/1/6
f 183/1/6 182/1/6 184/1/6
f 185/1/6 186/1/6 187/1/6
f 187/1/6 186/1/6 188/1/6
f 189/1/6 190/1/6 191/1/6
f 191/1/6 190/1/6 192/1/6
f 193/1/6 194/1/6 195/1/6
f 195/1/6 194/1/6 196/1/6
f 197/1/6 198/1/6 200/1/6
f 199/1/6 200/1/6 201/1/6
f 200/1/6 198/1/6 202/1/6
f 201/1/6 200/1/6 202/1/6
f 202/1/6 198/1/6 204/1/6
f 203/1/6 204/1/6 205/1/6
f 204/1/6 198/1/6 206/1/6
f 205/1/6 204/1/6 206/1/6
f 206/1/6 198/1/6 208/1/6
f 207/1/6 208/1/6 209/1/6
f 208/1/6 198/1/6 210/1/6
f 209/1/6 208/1/6 210/1/6
f 210/1/6 198/1/6 212/1/6
f 211/1/6 212/1/6 213/1/6
f 212/1/6 198/1/6 214/1/6
f 213/1/6 212/1/6 214/1/6
f 214/1/6 198/1/6 216/1/6
f 215/1/6 216/1/6 217/1/6
f 216/1/6 198/1/6 218/1/6
f 217/1/6 216/1/6 218/1/6
f 218/1/6 198/1/6 220/1/6
f 219/1/6 220/1/6 221/1/6
f 220/1/6 198/1/6 222/1/6
f 221/1/6 220/1/6 222/1/6
f 222/1/6 198/1/6 224/1/6
f 223/1/6 224/1/6 225/1/6
f 224/1/6 198/1/6 226/1/6
f 225/1/6 224/1/6 226/1/6
f 226/1/6 198/1/6 228/1/6
f 227/1/6 228/1/6 229/1/6
f 228/1/6 198/1/6 230/1/6
f 229/1/6 228/1/6 230/1/6
f 230/1/6 198/1/6 232/1/6
f 231/1/6 232/1/6 233/1/6
f 232/1/6 198/1/6 234/1/6
f 233/1/6 232/1/6 234/1/6
