# MagicaVoxel @ Ephtracy

# material
mtllib new_gage01.mtl
usemtl palette

# normals
vn -1 0 0
vn 1 0 0
vn 0 0 1
vn 0 0 -1
vn 0 -1 0
vn 0 1 0

# texcoords
vt 0.138672 0.5
vt 0.705078 0.5
vt 0.716797 0.5
vt 0.857422 0.5
vt 0.912109 0.5
vt 0.962891 0.5
vt 0.966797 0.5

# verts
v -13 4 27
v -13 4 22
v -13 16 27
v -13 16 22
v -12 4 29
v -12 4 27
v -12 4 22
v -12 4 20
v -12 16 29
v -12 16 27
v -12 16 22
v -12 16 20
v -11 4 30
v -11 4 29
v -11 4 20
v -11 4 19
v -11 16 30
v -11 16 29
v -11 16 20
v -11 16 19
v -10 4 31
v -10 4 30
v -10 4 19
v -10 4 18
v -10 16 31
v -10 16 30
v -10 16 19
v -10 16 18
v -8 4 32
v -8 4 31
v -8 4 18
v -8 4 17
v -8 16 32
v -8 16 31
v -8 16 18
v -8 16 17
v -6 14 25
v -6 14 24
v -6 15 25
v -6 15 24
v -4 14 28
v -4 14 27
v -4 14 22
v -4 14 21
v -4 15 28
v -4 15 27
v -4 15 22
v -4 15 21
v -3 14 27
v -3 14 26
v -3 14 23
v -3 14 22
v -3 15 30
v -3 15 29
v -3 15 27
v -3 15 26
v -3 15 23
v -3 15 22
v -3 15 20
v -3 15 19
v -3 16 30
v -3 16 29
v -3 16 20
v -3 16 19
v -2 1 19
v -2 1 -31
v -2 4 19
v -2 4 18
v -2 6 17
v -2 6 -31
v -2 10 18
v -2 10 17
v -2 14 26
v -2 14 23
v -2 15 29
v -2 15 28
v -2 15 26
v -2 15 23
v -2 15 21
v -2 15 20
v -2 16 29
v -2 16 28
v -2 16 21
v -2 16 20
v -1 15 28
v -1 15 27
v -1 15 22
v -1 15 21
v -1 16 28
v -1 16 27
v -1 16 22
v -1 16 21
v 0 15 27
v 0 15 22
v 0 16 27
v 0 16 22
v 9 2 17
v 9 2 -27
v 9 6 17
v 9 6 -27
v -11 15 27
v -11 15 22
v -11 16 27
v -11 16 22
v -10 15 28
v -10 15 27
v -10 15 22
v -10 15 21
v -10 16 28
v -10 16 27
v -10 16 22
v -10 16 21
v -9 14 26
v -9 14 23
v -9 15 29
v -9 15 28
v -9 15 26
v -9 15 23
v -9 15 21
v -9 15 20
v -9 16 29
v -9 16 28
v -9 16 21
v -9 16 20
v -8 14 27
v -8 14 26
v -8 14 23
v -8 14 22
v -8 15 30
v -8 15 29
v -8 15 27
v -8 15 26
v -8 15 23
v -8 15 22
v -8 15 20
v -8 15 19
v -8 16 30
v -8 16 29
v -8 16 20
v -8 16 19
v -7 14 28
v -7 14 27
v -7 14 22
v -7 14 21
v -7 15 28
v -7 15 27
v -7 15 22
v -7 15 21
v -5 14 25
v -5 14 24
v -5 15 25
v -5 15 24
v -3 4 32
v -3 4 31
v -3 4 18
v -3 4 17
v -3 16 32
v -3 16 31
v -3 16 18
v -3 16 17
v -1 15 31
v -1 15 30
v -1 15 19
v -1 15 18
v -1 16 31
v -1 16 30
v -1 16 19
v -1 16 18
v 0 15 30
v 0 15 29
v 0 15 20
v 0 15 19
v 0 16 30
v 0 16 29
v 0 16 20
v 0 16 19
v 1 2 17
v 1 2 -27
v 1 5 17
v 1 5 16
v 1 5 12
v 1 5 11
v 1 5 7
v 1 5 6
v 1 5 2
v 1 5 1
v 1 5 -4
v 1 5 -5
v 1 5 -9
v 1 5 -10
v 1 5 -14
v 1 5 -15
v 1 5 -19
v 1 5 -20
v 1 5 -23
v 1 5 -24
v 1 6 16
v 1 6 12
v 1 6 11
v 1 6 7
v 1 6 6
v 1 6 2
v 1 6 1
v 1 6 -4
v 1 6 -5
v 1 6 -9
v 1 6 -10
v 1 6 -14
v 1 6 -15
v 1 6 -19
v 1 6 -20
v 1 6 -23
v 1 6 -24
v 1 6 -27
v 1 15 29
v 1 15 27
v 1 15 22
v 1 15 20
v 1 16 29
v 1 16 27
v 1 16 22
v 1 16 20
v 2 15 27
v 2 15 22
v 2 16 27
v 2 16 22
v 5 5 17
v 5 5 16
v 5 5 12
v 5 5 11
v 5 5 7
v 5 5 6
v 5 5 2
v 5 5 1
v 5 5 -4
v 5 5 -5
v 5 5 -9
v 5 5 -10
v 5 5 -14
v 5 5 -15
v 5 5 -19
v 5 5 -20
v 5 5 -23
v 5 5 -24
v 5 6 17
v 5 6 16
v 5 6 12
v 5 6 11
v 5 6 7
v 5 6 6
v 5 6 2
v 5 6 1
v 5 6 -4
v 5 6 -5
v 5 6 -9
v 5 6 -10
v 5 6 -14
v 5 6 -15
v 5 6 -19
v 5 6 -20
v 5 6 -23
v 5 6 -24
v 11 1 17
v 11 1 -31
v 11 6 17
v 11 6 -31
v 12 1 19
v 12 1 17
v 12 4 19
v 12 7 19
v 12 7 18
v 12 10 18
v 12 10 17
v 13 4 31
v 13 4 19
v 13 7 19
v 13 7 18
v 13 15 31
v 13 15 18
v -8 4 32
v -8 16 32
v -3 4 32
v -3 16 32
v -10 4 31
v -10 16 31
v -8 4 31
v -8 16 31
v -3 4 31
v -3 16 31
v -1 4 31
v -1 15 31
v -1 16 31
v 13 4 31
v 13 15 31
v -11 4 30
v -11 16 30
v -10 4 30
v -10 16 30
v -1 15 30
v -1 16 30
v 0 15 30
v 0 16 30
v -12 4 29
v -12 16 29
v -11 4 29
v -11 16 29
v 0 15 29
v 0 16 29
v 1 15 29
v 1 16 29
v -13 4 27
v -13 16 27
v -12 4 27
v -12 16 27
v 1 15 27
v 1 16 27
v 2 15 27
v 2 16 27
v -6 14 25
v -6 15 25
v -5 14 25
v -5 15 25
v -9 14 23
v -9 15 23
v -8 14 23
v -8 15 23
v -3 14 23
v -3 15 23
v -2 14 23
v -2 15 23
v -11 15 22
v -11 16 22
v -10 15 22
v -10 16 22
v -8 14 22
v -8 15 22
v -7 14 22
v -7 15 22
v -4 14 22
v -4 15 22
v -3 14 22
v -3 15 22
v -1 15 22
v -1 16 22
v 0 15 22
v 0 16 22
v -10 15 21
v -10 16 21
v -9 15 21
v -9 16 21
v -7 14 21
v -7 15 21
v -4 14 21
v -4 15 21
v -2 15 21
v -2 16 21
v -1 15 21
v -1 16 21
v -9 15 20
v -9 16 20
v -8 15 20
v -8 16 20
v -3 15 20
v -3 16 20
v -2 15 20
v -2 16 20
v -8 15 19
v -8 16 19
v -3 15 19
v -3 16 19
v -2 1 19
v -2 4 19
v 12 1 19
v 12 4 19
v 1 5 12
v 1 6 12
v 5 5 12
v 5 6 12
v 1 5 7
v 1 6 7
v 5 5 7
v 5 6 7
v 1 5 2
v 1 6 2
v 5 5 2
v 5 6 2
v 1 5 -4
v 1 6 -4
v 5 5 -4
v 5 6 -4
v 1 5 -9
v 1 6 -9
v 5 5 -9
v 5 6 -9
v 1 5 -14
v 1 6 -14
v 5 5 -14
v 5 6 -14
v 1 5 -19
v 1 6 -19
v 5 5 -19
v 5 6 -19
v 1 5 -23
v 1 6 -23
v 5 5 -23
v 5 6 -23
v 1 2 -27
v 1 6 -27
v 9 2 -27
v 9 6 -27
v -8 15 30
v -8 16 30
v -3 15 30
v -3 16 30
v -9 15 29
v -9 16 29
v -8 15 29
v -8 16 29
v -3 15 29
v -3 16 29
v -2 15 29
v -2 16 29
v -10 15 28
v -10 16 28
v -9 15 28
v -9 16 28
v -7 14 28
v -7 15 28
v -4 14 28
v -4 15 28
v -2 15 28
v -2 16 28
v -1 15 28
v -1 16 28
v -11 15 27
v -11 16 27
v -10 15 27
v -10 16 27
v -8 14 27
v -8 15 27
v -7 14 27
v -7 15 27
v -4 14 27
v -4 15 27
v -3 14 27
v -3 15 27
v -1 15 27
v -1 16 27
v 0 15 27
v 0 16 27
v -9 14 26
v -9 15 26
v -8 14 26
v -8 15 26
v -3 14 26
v -3 15 26
v -2 14 26
v -2 15 26
v -6 14 24
v -6 15 24
v -5 14 24
v -5 15 24
v -13 4 22
v -13 16 22
v -12 4 22
v -12 16 22
v 1 15 22
v 1 16 22
v 2 15 22
v 2 16 22
v -12 4 20
v -12 16 20
v -11 4 20
v -11 16 20
v 0 15 20
v 0 16 20
v 1 15 20
v 1 16 20
v -11 4 19
v -11 16 19
v -10 4 19
v -10 16 19
v -1 15 19
v -1 16 19
v 0 15 19
v 0 16 19
v 12 4 19
v 12 7 19
v 13 4 19
v 13 7 19
v -10 4 18
v -10 16 18
v -8 4 18
v -8 16 18
v -3 4 18
v -3 16 18
v -2 4 18
v -2 10 18
v -1 10 18
v -1 15 18
v -1 16 18
v 12 7 18
v 12 10 18
v 13 7 18
v 13 15 18
v -8 4 17
v -8 16 17
v -3 4 17
v -3 16 17
v -2 6 17
v -2 10 17
v 1 2 17
v 1 5 17
v 1 6 17
v 5 5 17
v 5 6 17
v 9 2 17
v 9 6 17
v 11 1 17
v 11 6 17
v 12 1 17
v 12 10 17
v 1 5 16
v 1 6 16
v 5 5 16
v 5 6 16
v 1 5 11
v 1 6 11
v 5 5 11
v 5 6 11
v 1 5 6
v 1 6 6
v 5 5 6
v 5 6 6
v 1 5 1
v 1 6 1
v 5 5 1
v 5 6 1
v 1 5 -5
v 1 6 -5
v 5 5 -5
v 5 6 -5
v 1 5 -10
v 1 6 -10
v 5 5 -10
v 5 6 -10
v 1 5 -15
v 1 6 -15
v 5 5 -15
v 5 6 -15
v 1 5 -20
v 1 6 -20
v 5 5 -20
v 5 6 -20
v 1 5 -24
v 1 6 -24
v 5 5 -24
v 5 6 -24
v -2 1 -31
v -2 6 -31
v 11 1 -31
v 11 6 -31
v -2 1 19
v 12 1 19
v 11 1 17
v 12 1 17
v -2 1 -31
v 11 1 -31
v -8 4 32
v -3 4 32
v -10 4 31
v -8 4 31
v -6 4 31
v -3 4 31
v -1 4 31
v 13 4 31
v -11 4 30
v -10 4 30
v -6 4 30
v -3 4 30
v -1 4 30
v -12 4 29
v -11 4 29
v -13 4 27
v -12 4 27
v -13 4 22
v -12 4 22
v -12 4 20
v -11 4 20
v -10 4 20
v -9 4 20
v -11 4 19
v -10 4 19
v -9 4 19
v -8 4 19
v -3 4 19
v -2 4 19
v 12 4 19
v 13 4 19
v -10 4 18
v -8 4 18
v -3 4 18
v -2 4 18
v -8 4 17
v -3 4 17
v 1 5 17
v 5 5 17
v 1 5 16
v 5 5 16
v 1 5 12
v 5 5 12
v 1 5 11
v 5 5 11
v 1 5 7
v 5 5 7
v 1 5 6
v 5 5 6
v 1 5 2
v 5 5 2
v 1 5 1
v 5 5 1
v 1 5 -4
v 5 5 -4
v 1 5 -5
v 5 5 -5
v 1 5 -9
v 5 5 -9
v 1 5 -10
v 5 5 -10
v 1 5 -14
v 5 5 -14
v 1 5 -15
v 5 5 -15
v 1 5 -19
v 5 5 -19
v 1 5 -20
v 5 5 -20
v 1 5 -23
v 5 5 -23
v 1 5 -24
v 5 5 -24
v 12 7 19
v 13 7 19
v 12 7 18
v 13 7 18
v 1 2 17
v 9 2 17
v 1 2 -27
v 9 2 -27
v -2 6 17
v 1 6 17
v 5 6 17
v 9 6 17
v 11 6 17
v 1 6 16
v 5 6 16
v 1 6 12
v 5 6 12
v 1 6 11
v 5 6 11
v 1 6 7
v 5 6 7
v 1 6 6
v 5 6 6
v 1 6 2
v 5 6 2
v 1 6 1
v 5 6 1
v 1 6 -4
v 5 6 -4
v 1 6 -5
v 5 6 -5
v 1 6 -9
v 5 6 -9
v 1 6 -10
v 5 6 -10
v 1 6 -14
v 5 6 -14
v 1 6 -15
v 5 6 -15
v 1 6 -19
v 5 6 -19
v 1 6 -20
v 5 6 -20
v 1 6 -23
v 5 6 -23
v 1 6 -24
v 5 6 -24
v 1 6 -27
v 9 6 -27
v -2 6 -31
v 11 6 -31
v -2 10 18
v -1 10 18
v 12 10 18
v -2 10 17
v 12 10 17
v -7 14 28
v -4 14 28
v -8 14 27
v -7 14 27
v -4 14 27
v -3 14 27
v -9 14 26
v -8 14 26
v -3 14 26
v -2 14 26
v -6 14 25
v -5 14 25
v -6 14 24
v -5 14 24
v -9 14 23
v -8 14 23
v -3 14 23
v -2 14 23
v -8 14 22
v -7 14 22
v -4 14 22
v -3 14 22
v -7 14 21
v -4 14 21
v -1 15 31
v 13 15 31
v -8 15 30
v -3 15 30
v -1 15 30
v 0 15 30
v -9 15 29
v -8 15 29
v -3 15 29
v -2 15 29
v 0 15 29
v 1 15 29
v -10 15 28
v -9 15 28
v -7 15 28
v -4 15 28
v -2 15 28
v -1 15 28
v -11 15 27
v -10 15 27
v -8 15 27
v -7 15 27
v -4 15 27
v -3 15 27
v -1 15 27
v 0 15 27
v 1 15 27
v 2 15 27
v -9 15 26
v -8 15 26
v -3 15 26
v -2 15 26
v -6 15 25
v -5 15 25
v -6 15 24
v -5 15 24
v -9 15 23
v -8 15 23
v -3 15 23
v -2 15 23
v -11 15 22
v -10 15 22
v -8 15 22
v -7 15 22
v -4 15 22
v -3 15 22
v -1 15 22
v 0 15 22
v 1 15 22
v 2 15 22
v -10 15 21
v -9 15 21
v -7 15 21
v -4 15 21
v -2 15 21
v -1 15 21
v -9 15 20
v -8 15 20
v -3 15 20
v -2 15 20
v 0 15 20
v 1 15 20
v -8 15 19
v -3 15 19
v -1 15 19
v 0 15 19
v -1 15 18
v 13 15 18
v -8 16 32
v -3 16 32
v -10 16 31
v -8 16 31
v -3 16 31
v -1 16 31
v -11 16 30
v -10 16 30
v -8 16 30
v -3 16 30
v -1 16 30
v 0 16 30
v -12 16 29
v -11 16 29
v -9 16 29
v -8 16 29
v -3 16 29
v -2 16 29
v 0 16 29
v 1 16 29
v -10 16 28
v -9 16 28
v -2 16 28
v -1 16 28
v -13 16 27
v -12 16 27
v -11 16 27
v -10 16 27
v -1 16 27
v 0 16 27
v 1 16 27
v 2 16 27
v -13 16 22
v -12 16 22
v -11 16 22
v -10 16 22
v -1 16 22
v 0 16 22
v 1 16 22
v 2 16 22
v -10 16 21
v -9 16 21
v -2 16 21
v -1 16 21
v -12 16 20
v -11 16 20
v -9 16 20
v -8 16 20
v -3 16 20
v -2 16 20
v 0 16 20
v 1 16 20
v -11 16 19
v -10 16 19
v -8 16 19
v -3 16 19
v -1 16 19
v 0 16 19
v -10 16 18
v -8 16 18
v -3 16 18
v -1 16 18
v -8 16 17
v -3 16 17

# faces
f 3/6/1 2/6/1 1/6/1
f 4/6/1 2/6/1 3/6/1
f 9/6/1 6/6/1 5/6/1
f 10/6/1 6/6/1 9/6/1
f 11/6/1 8/6/1 7/6/1
f 12/6/1 8/6/1 11/6/1
f 17/6/1 14/6/1 13/6/1
f 18/6/1 14/6/1 17/6/1
f 19/6/1 16/6/1 15/6/1
f 20/6/1 16/6/1 19/6/1
f 25/6/1 22/6/1 21/6/1
f 26/6/1 22/6/1 25/6/1
f 27/6/1 24/6/1 23/6/1
f 28/6/1 24/6/1 27/6/1
f 33/6/1 30/6/1 29/6/1
f 34/6/1 30/6/1 33/6/1
f 35/6/1 32/6/1 31/6/1
f 36/6/1 32/6/1 35/6/1
f 39/6/1 38/6/1 37/6/1
f 40/6/1 38/6/1 39/6/1
f 45/6/1 42/6/1 41/6/1
f 46/6/1 42/6/1 45/6/1
f 47/6/1 44/6/1 43/6/1
f 48/6/1 44/6/1 47/6/1
f 55/6/1 50/6/1 49/6/1
f 56/6/1 50/6/1 55/6/1
f 57/6/1 52/6/1 51/6/1
f 58/6/1 52/6/1 57/6/1
f 61/6/1 54/6/1 53/6/1
f 62/6/1 54/6/1 61/6/1
f 63/6/1 60/6/1 59/6/1
f 64/6/1 60/6/1 63/6/1
f 67/6/1 66/6/1 65/6/1
f 68/6/1 66/6/1 67/6/1
f 69/6/1 66/6/1 68/6/1
f 70/6/1 66/6/1 69/6/1
f 71/6/1 69/6/1 68/6/1
f 72/6/1 69/6/1 71/6/1
f 77/6/1 74/6/1 73/6/1
f 78/6/1 74/6/1 77/6/1
f 81/6/1 76/6/1 75/6/1
f 82/6/1 76/6/1 81/6/1
f 83/6/1 80/6/1 79/6/1
f 84/6/1 80/6/1 83/6/1
f 89/6/1 86/6/1 85/6/1
f 90/6/1 86/6/1 89/6/1
f 91/6/1 88/6/1 87/6/1
f 92/6/1 88/6/1 91/6/1
f 95/6/1 94/6/1 93/6/1
f 96/6/1 94/6/1 95/6/1
f 99/6/1 98/6/1 97/6/1
f 100/6/1 98/6/1 99/6/1
f 101/6/2 102/6/2 103/6/2
f 103/6/2 102/6/2 104/6/2
f 105/6/2 106/6/2 109/6/2
f 109/6/2 106/6/2 110/6/2
f 107/6/2 108/6/2 111/6/2
f 111/6/2 108/6/2 112/6/2
f 113/6/2 114/6/2 117/6/2
f 117/6/2 114/6/2 118/6/2
f 115/6/2 116/6/2 121/6/2
f 121/6/2 116/6/2 122/6/2
f 119/6/2 120/6/2 123/6/2
f 123/6/2 120/6/2 124/6/2
f 125/6/2 126/6/2 131/6/2
f 131/6/2 126/6/2 132/6/2
f 127/6/2 128/6/2 133/6/2
f 133/6/2 128/6/2 134/6/2
f 129/6/2 130/6/2 137/6/2
f 137/6/2 130/6/2 138/6/2
f 135/6/2 136/6/2 139/6/2
f 139/6/2 136/6/2 140/6/2
f 141/6/2 142/6/2 145/6/2
f 145/6/2 142/6/2 146/6/2
f 143/6/2 144/6/2 147/6/2
f 147/6/2 144/6/2 148/6/2
f 149/6/2 150/6/2 151/6/2
f 151/6/2 150/6/2 152/6/2
f 153/6/2 154/6/2 157/6/2
f 157/6/2 154/6/2 158/6/2
f 155/6/2 156/6/2 159/6/2
f 159/6/2 156/6/2 160/6/2
f 161/6/2 162/6/2 165/6/2
f 165/6/2 162/6/2 166/6/2
f 163/6/2 164/6/2 167/6/2
f 167/6/2 164/6/2 168/6/2
f 169/6/2 170/6/2 173/6/2
f 173/6/2 170/6/2 174/6/2
f 171/6/2 172/6/2 175/6/2
f 175/6/2 172/6/2 176/6/2
f 177/6/2 178/6/2 179/6/2
f 179/6/2 178/6/2 180/6/2
f 180/6/2 178/6/2 181/6/2
f 181/6/2 178/6/2 182/6/2
f 182/6/2 178/6/2 183/6/2
f 183/6/2 178/6/2 184/6/2
f 184/6/2 178/6/2 185/6/2
f 185/6/2 178/6/2 186/6/2
f 186/6/2 178/6/2 187/6/2
f 187/6/2 178/6/2 188/6/2
f 188/6/2 178/6/2 189/6/2
f 189/6/2 178/6/2 190/6/2
f 190/6/2 178/6/2 191/6/2
f 191/6/2 178/6/2 192/6/2
f 192/6/2 178/6/2 193/6/2
f 193/6/2 178/6/2 194/6/2
f 194/6/2 178/6/2 195/6/2
f 195/6/2 178/6/2 196/6/2
f 180/6/2 181/6/2 197/6/2
f 197/6/2 181/6/2 198/6/2
f 182/6/2 183/6/2 199/6/2
f 199/6/2 183/6/2 200/6/2
f 184/6/2 185/6/2 201/6/2
f 201/6/2 185/6/2 202/6/2
f 186/6/2 187/6/2 203/6/2
f 203/6/2 187/6/2 204/6/2
f 188/6/2 189/6/2 205/6/2
f 205/6/2 189/6/2 206/6/2
f 190/6/2 191/6/2 207/6/2
f 207/6/2 191/6/2 208/6/2
f 192/6/2 193/6/2 209/6/2
f 209/6/2 193/6/2 210/6/2
f 194/6/2 195/6/2 211/6/2
f 211/6/2 195/6/2 212/6/2
f 196/6/2 178/6/2 213/6/2
f 213/6/2 178/6/2 214/6/2
f 215/6/2 216/6/2 219/6/2
f 219/6/2 216/6/2 220/6/2
f 217/6/2 218/6/2 221/6/2
f 221/6/2 218/6/2 222/6/2
f 223/6/2 224/6/2 225/6/2
f 225/6/2 224/6/2 226/6/2
f 227/5/2 228/5/2 245/5/2
f 245/5/2 228/5/2 246/5/2
f 229/5/2 230/5/2 247/5/2
f 247/5/2 230/5/2 248/5/2
f 231/5/2 232/5/2 249/5/2
f 249/5/2 232/5/2 250/5/2
f 233/5/2 234/5/2 251/5/2
f 251/5/2 234/5/2 252/5/2
f 235/5/2 236/5/2 253/5/2
f 253/5/2 236/5/2 254/5/2
f 237/5/2 238/5/2 255/5/2
f 255/5/2 238/5/2 256/5/2
f 239/5/2 240/5/2 257/5/2
f 257/5/2 240/5/2 258/5/2
f 241/5/2 242/5/2 259/5/2
f 259/5/2 242/5/2 260/5/2
f 243/5/2 244/5/2 261/5/2
f 261/5/2 244/5/2 262/5/2
f 263/6/2 264/6/2 265/6/2
f 265/6/2 264/6/2 266/6/2
f 267/6/2 268/6/2 269/6/2
f 269/6/2 268/6/2 270/6/2
f 270/6/2 268/6/2 271/6/2
f 271/6/2 268/6/2 272/6/2
f 272/6/2 268/6/2 273/6/2
f 274/2/2 275/2/2 276/2/2
f 274/2/2 276/2/2 278/2/2
f 276/2/2 277/2/2 278/2/2
f 278/2/2 277/2/2 279/2/2
f 282/6/3 281/6/3 280/6/3
f 283/6/3 281/6/3 282/6/3
f 286/6/3 285/6/3 284/6/3
f 287/6/3 285/6/3 286/6/3
f 290/6/3 289/6/3 288/6/3
f 291/6/3 289/6/3 290/6/3
f 292/6/3 289/6/3 291/6/3
f 293/2/3 291/2/3 290/2/3
f 294/2/3 291/2/3 293/2/3
f 297/6/3 296/6/3 295/6/3
f 298/6/3 296/6/3 297/6/3
f 301/6/3 300/6/3 299/6/3
f 302/6/3 300/6/3 301/6/3
f 305/6/3 304/6/3 303/6/3
f 306/6/3 304/6/3 305/6/3
f 309/6/3 308/6/3 307/6/3
f 310/6/3 308/6/3 309/6/3
f 313/6/3 312/6/3 311/6/3
f 314/6/3 312/6/3 313/6/3
f 317/6/3 316/6/3 315/6/3
f 318/6/3 316/6/3 317/6/3
f 321/6/3 320/6/3 319/6/3
f 322/6/3 320/6/3 321/6/3
f 325/6/3 324/6/3 323/6/3
f 326/6/3 324/6/3 325/6/3
f 329/6/3 328/6/3 327/6/3
f 330/6/3 328/6/3 329/6/3
f 333/6/3 332/6/3 331/6/3
f 334/6/3 332/6/3 333/6/3
f 337/6/3 336/6/3 335/6/3
f 338/6/3 336/6/3 337/6/3
f 341/6/3 340/6/3 339/6/3
f 342/6/3 340/6/3 341/6/3
f 345/6/3 344/6/3 343/6/3
f 346/6/3 344/6/3 345/6/3
f 349/6/3 348/6/3 347/6/3
f 350/6/3 348/6/3 349/6/3
f 353/6/3 352/6/3 351/6/3
f 354/6/3 352/6/3 353/6/3
f 357/6/3 356/6/3 355/6/3
f 358/6/3 356/6/3 357/6/3
f 361/6/3 360/6/3 359/6/3
f 362/6/3 360/6/3 361/6/3
f 365/6/3 364/6/3 363/6/3
f 366/6/3 364/6/3 365/6/3
f 369/6/3 368/6/3 367/6/3
f 370/6/3 368/6/3 369/6/3
f 373/6/3 372/6/3 371/6/3
f 374/6/3 372/6/3 373/6/3
f 377/5/3 376/5/3 375/5/3
f 378/5/3 376/5/3 377/5/3
f 381/5/3 380/5/3 379/5/3
f 382/5/3 380/5/3 381/5/3
f 385/5/3 384/5/3 383/5/3
f 386/5/3 384/5/3 385/5/3
f 389/5/3 388/5/3 387/5/3
f 390/5/3 388/5/3 389/5/3
f 393/5/3 392/5/3 391/5/3
f 394/5/3 392/5/3 393/5/3
f 397/5/3 396/5/3 395/5/3
f 398/5/3 396/5/3 397/5/3
f 401/5/3 400/5/3 399/5/3
f 402/5/3 400/5/3 401/5/3
f 405/5/3 404/5/3 403/5/3
f 406/5/3 404/5/3 405/5/3
f 409/6/3 408/6/3 407/6/3
f 410/6/3 408/6/3 409/6/3
f 411/6/4 412/6/4 413/6/4
f 413/6/4 412/6/4 414/6/4
f 415/6/4 416/6/4 417/6/4
f 417/6/4 416/6/4 418/6/4
f 419/6/4 420/6/4 421/6/4
f 421/6/4 420/6/4 422/6/4
f 423/6/4 424/6/4 425/6/4
f 425/6/4 424/6/4 426/6/4
f 427/6/4 428/6/4 429/6/4
f 429/6/4 428/6/4 430/6/4
f 431/6/4 432/6/4 433/6/4
f 433/6/4 432/6/4 434/6/4
f 435/6/4 436/6/4 437/6/4
f 437/6/4 436/6/4 438/6/4
f 439/6/4 440/6/4 441/6/4
f 441/6/4 440/6/4 442/6/4
f 443/6/4 444/6/4 445/6/4
f 445/6/4 444/6/4 446/6/4
f 447/6/4 448/6/4 449/6/4
f 449/6/4 448/6/4 450/6/4
f 451/6/4 452/6/4 453/6/4
f 453/6/4 452/6/4 454/6/4
f 455/6/4 456/6/4 457/6/4
f 457/6/4 456/6/4 458/6/4
f 459/6/4 460/6/4 461/6/4
f 461/6/4 460/6/4 462/6/4
f 463/6/4 464/6/4 465/6/4
f 465/6/4 464/6/4 466/6/4
f 467/6/4 468/6/4 469/6/4
f 469/6/4 468/6/4 470/6/4
f 471/6/4 472/6/4 473/6/4
f 473/6/4 472/6/4 474/6/4
f 475/6/4 476/6/4 477/6/4
f 477/6/4 476/6/4 478/6/4
f 479/6/4 480/6/4 481/6/4
f 481/6/4 480/6/4 482/6/4
f 483/6/4 484/6/4 485/6/4
f 485/6/4 484/6/4 486/6/4
f 487/2/4 488/2/4 489/2/4
f 489/2/4 488/2/4 490/2/4
f 491/6/4 492/6/4 493/6/4
f 493/6/4 492/6/4 494/6/4
f 495/6/4 496/6/4 497/6/4
f 497/6/4 496/6/4 498/6/4
f 498/6/4 496/6/4 499/6/4
f 499/6/4 496/6/4 500/6/4
f 500/6/4 496/6/4 501/6/4
f 499/2/4 500/2/4 503/2/4
f 502/2/4 503/2/4 504/2/4
f 503/2/4 500/2/4 505/2/4
f 504/2/4 503/2/4 505/2/4
f 506/6/4 507/6/4 508/6/4
f 508/6/4 507/6/4 509/6/4
f 510/6/4 511/6/4 514/6/4
f 512/6/4 513/6/4 515/6/4
f 514/6/4 511/6/4 516/6/4
f 512/6/4 515/6/4 517/6/4
f 515/6/4 516/6/4 517/6/4
f 516/6/4 511/6/4 518/6/4
f 517/6/4 516/6/4 518/6/4
f 518/6/4 511/6/4 520/6/4
f 519/6/4 520/6/4 521/6/4
f 520/6/4 511/6/4 522/6/4
f 521/6/4 520/6/4 522/6/4
f 523/5/4 524/5/4 525/5/4
f 525/5/4 524/5/4 526/5/4
f 527/5/4 528/5/4 529/5/4
f 529/5/4 528/5/4 530/5/4
f 531/5/4 532/5/4 533/5/4
f 533/5/4 532/5/4 534/5/4
f 535/5/4 536/5/4 537/5/4
f 537/5/4 536/5/4 538/5/4
f 539/5/4 540/5/4 541/5/4
f 541/5/4 540/5/4 542/5/4
f 543/5/4 544/5/4 545/5/4
f 545/5/4 544/5/4 546/5/4
f 547/5/4 548/5/4 549/5/4
f 549/5/4 548/5/4 550/5/4
f 551/5/4 552/5/4 553/5/4
f 553/5/4 552/5/4 554/5/4
f 555/5/4 556/5/4 557/5/4
f 557/5/4 556/5/4 558/5/4
f 559/6/4 560/6/4 561/6/4
f 561/6/4 560/6/4 562/6/4
f 565/6/5 564/6/5 563/6/5
f 566/6/5 564/6/5 565/6/5
f 567/6/5 565/6/5 563/6/5
f 568/6/5 565/6/5 567/6/5
f 572/6/5 570/6/5 569/6/5
f 573/6/5 570/6/5 572/6/5
f 574/6/5 570/6/5 573/6/5
f 578/6/5 572/6/5 571/6/5
f 578/6/5 573/6/5 572/6/5
f 579/2/5 574/2/5 573/2/5
f 579/6/5 573/6/5 578/6/5
f 580/6/5 575/6/5 574/6/5
f 580/2/5 574/2/5 579/2/5
f 581/2/5 576/2/5 575/2/5
f 581/6/5 575/6/5 580/6/5
f 583/6/5 578/6/5 577/6/5
f 585/6/5 583/6/5 582/6/5
f 586/6/5 585/6/5 584/6/5
f 587/6/5 583/6/5 585/6/5
f 587/6/5 585/6/5 586/6/5
f 588/6/5 583/6/5 587/6/5
f 589/6/5 578/6/5 583/6/5
f 589/6/5 583/6/5 588/6/5
f 590/2/5 580/2/5 579/2/5
f 590/6/5 578/6/5 589/6/5
f 590/2/5 579/2/5 578/2/5
f 590/2/5 581/2/5 580/2/5
f 591/2/5 581/2/5 590/2/5
f 592/6/5 590/6/5 589/6/5
f 592/6/5 591/6/5 590/6/5
f 593/6/5 591/6/5 592/6/5
f 594/2/5 581/2/5 591/2/5
f 594/6/5 591/6/5 593/6/5
f 595/2/5 581/2/5 594/2/5
f 596/2/5 581/2/5 595/2/5
f 597/2/5 581/2/5 596/2/5
f 598/2/5 576/2/5 581/2/5
f 598/2/5 581/2/5 597/2/5
f 599/2/5 576/2/5 598/2/5
f 600/6/5 594/6/5 593/6/5
f 600/6/5 595/6/5 594/6/5
f 601/2/5 596/2/5 595/2/5
f 601/6/5 595/6/5 600/6/5
f 602/6/5 597/6/5 596/6/5
f 602/2/5 596/2/5 601/2/5
f 603/6/5 597/6/5 602/6/5
f 604/6/5 602/6/5 601/6/5
f 605/6/5 602/6/5 604/6/5
f 608/5/5 607/5/5 606/5/5
f 609/5/5 607/5/5 608/5/5
f 612/5/5 611/5/5 610/5/5
f 613/5/5 611/5/5 612/5/5
f 616/5/5 615/5/5 614/5/5
f 617/5/5 615/5/5 616/5/5
f 620/5/5 619/5/5 618/5/5
f 621/5/5 619/5/5 620/5/5
f 624/5/5 623/5/5 622/5/5
f 625/5/5 623/5/5 624/5/5
f 628/5/5 627/5/5 626/5/5
f 629/5/5 627/5/5 628/5/5
f 632/5/5 631/5/5 630/5/5
f 633/5/5 631/5/5 632/5/5
f 636/5/5 635/5/5 634/5/5
f 637/5/5 635/5/5 636/5/5
f 640/5/5 639/5/5 638/5/5
f 641/5/5 639/5/5 640/5/5
f 644/2/5 643/2/5 642/2/5
f 645/2/5 643/2/5 644/2/5
f 646/6/6 647/6/6 648/6/6
f 648/6/6 647/6/6 649/6/6
f 650/6/6 651/6/6 655/6/6
f 651/5/6 652/5/6 655/5/6
f 655/5/6 652/5/6 656/5/6
f 650/6/6 655/6/6 657/6/6
f 650/6/6 657/6/6 659/6/6
f 657/5/6 658/5/6 659/5/6
f 659/5/6 658/5/6 660/5/6
f 650/6/6 659/6/6 661/6/6
f 650/6/6 661/6/6 663/6/6
f 661/5/6 662/5/6 663/5/6
f 663/5/6 662/5/6 664/5/6
f 650/6/6 663/6/6 665/6/6
f 650/6/6 665/6/6 667/6/6
f 665/5/6 666/5/6 667/5/6
f 667/5/6 666/5/6 668/5/6
f 650/6/6 667/6/6 669/6/6
f 650/6/6 669/6/6 671/6/6
f 669/5/6 670/5/6 671/5/6
f 671/5/6 670/5/6 672/5/6
f 650/6/6 671/6/6 673/6/6
f 650/6/6 673/6/6 675/6/6
f 673/5/6 674/5/6 675/5/6
f 675/5/6 674/5/6 676/5/6
f 650/6/6 675/6/6 677/6/6
f 650/6/6 677/6/6 679/6/6
f 677/5/6 678/5/6 679/5/6
f 679/5/6 678/5/6 680/5/6
f 650/6/6 679/6/6 681/6/6
f 650/6/6 681/6/6 683/6/6
f 681/5/6 682/5/6 683/5/6
f 683/5/6 682/5/6 684/5/6
f 650/6/6 683/6/6 685/6/6
f 650/6/6 685/6/6 687/6/6
f 685/5/6 686/5/6 687/5/6
f 687/5/6 686/5/6 688/5/6
f 650/6/6 687/6/6 689/6/6
f 653/6/6 654/6/6 690/6/6
f 650/6/6 689/6/6 691/6/6
f 689/6/6 690/6/6 691/6/6
f 690/6/6 654/6/6 692/6/6
f 691/6/6 690/6/6 692/6/6
f 693/6/6 694/6/6 696/6/6
f 694/6/6 695/6/6 696/6/6
f 696/6/6 695/6/6 697/6/6
f 698/6/6 699/6/6 701/6/6
f 701/6/6 699/6/6 702/6/6
f 700/6/6 701/6/6 705/6/6
f 702/6/6 703/6/6 705/6/6
f 701/6/6 702/6/6 705/6/6
f 705/6/6 703/6/6 706/6/6
f 704/6/6 705/6/6 708/6/6
f 706/6/6 707/6/6 708/6/6
f 705/6/6 706/6/6 708/6/6
f 708/6/6 707/6/6 709/6/6
f 704/6/6 708/6/6 710/6/6
f 709/6/6 707/6/6 711/6/6
f 704/6/6 710/6/6 712/6/6
f 710/6/6 711/6/6 712/6/6
f 712/6/6 711/6/6 713/6/6
f 711/6/6 707/6/6 714/6/6
f 713/6/6 711/6/6 714/6/6
f 714/6/6 707/6/6 715/6/6
f 713/6/6 714/6/6 716/6/6
f 716/6/6 714/6/6 717/6/6
f 717/6/6 714/6/6 718/6/6
f 718/6/6 714/6/6 719/6/6
f 717/6/6 718/6/6 720/6/6
f 720/6/6 718/6/6 721/6/6
f 722/2/6 723/2/6 726/2/6
f 726/2/6 723/2/6 727/2/6
f 724/6/6 725/6/6 729/6/6
f 729/6/6 725/6/6 730/6/6
f 727/2/6 723/2/6 732/2/6
f 732/2/6 723/2/6 733/2/6
f 730/6/6 731/6/6 735/6/6
f 728/6/6 729/6/6 735/6/6
f 729/6/6 730/6/6 735/6/6
f 735/6/6 731/6/6 736/6/6
f 736/6/6 731/6/6 737/6/6
f 737/6/6 731/6/6 738/6/6
f 734/6/6 735/6/6 741/6/6
f 735/6/6 736/6/6 741/6/6
f 741/6/6 736/6/6 742/6/6
f 742/6/6 736/6/6 743/6/6
f 737/6/6 738/6/6 744/6/6
f 738/6/6 739/6/6 744/6/6
f 744/6/6 739/6/6 745/6/6
f 745/6/6 739/6/6 746/6/6
f 733/2/6 723/2/6 748/2/6
f 748/2/6 723/2/6 749/2/6
f 741/6/6 742/6/6 750/6/6
f 740/6/6 741/6/6 750/6/6
f 750/6/6 742/6/6 751/6/6
f 746/6/6 747/6/6 752/6/6
f 745/6/6 746/6/6 752/6/6
f 752/6/6 747/6/6 753/6/6
f 754/6/6 755/6/6 756/6/6
f 756/6/6 755/6/6 757/6/6
f 740/6/6 750/6/6 758/6/6
f 753/6/6 747/6/6 761/6/6
f 740/6/6 758/6/6 762/6/6
f 758/6/6 759/6/6 762/6/6
f 762/6/6 759/6/6 763/6/6
f 763/6/6 759/6/6 764/6/6
f 760/6/6 761/6/6 767/6/6
f 761/6/6 747/6/6 768/6/6
f 767/6/6 761/6/6 768/6/6
f 768/6/6 747/6/6 769/6/6
f 749/2/6 723/2/6 771/2/6
f 764/6/6 765/6/6 772/6/6
f 763/6/6 764/6/6 772/6/6
f 772/6/6 765/6/6 773/6/6
f 773/6/6 765/6/6 774/6/6
f 766/6/6 767/6/6 775/6/6
f 767/6/6 768/6/6 775/6/6
f 775/6/6 768/6/6 776/6/6
f 776/6/6 768/6/6 777/6/6
f 773/6/6 774/6/6 778/6/6
f 775/6/6 776/6/6 778/6/6
f 774/6/6 775/6/6 778/6/6
f 778/6/6 776/6/6 779/6/6
f 779/6/6 776/6/6 780/6/6
f 780/6/6 776/6/6 781/6/6
f 770/2/6 771/2/6 783/2/6
f 779/6/6 780/6/6 784/6/6
f 784/6/6 780/6/6 785/6/6
f 782/2/6 783/2/6 787/2/6
f 786/2/6 787/2/6 788/2/6
f 787/2/6 783/2/6 789/2/6
f 788/2/6 787/2/6 789/2/6
f 771/2/6 723/2/6 789/2/6
f 783/2/6 771/2/6 789/2/6
f 790/6/6 791/6/6 793/6/6
f 793/6/6 791/6/6 794/6/6
f 792/6/6 793/6/6 797/6/6
f 794/6/6 795/6/6 797/6/6
f 793/6/6 794/6/6 797/6/6
f 797/6/6 795/6/6 798/6/6
f 798/6/6 795/6/6 799/6/6
f 799/6/6 795/6/6 800/6/6
f 796/6/6 797/6/6 803/6/6
f 797/6/6 798/6/6 803/6/6
f 803/6/6 798/6/6 804/6/6
f 804/6/6 798/6/6 805/6/6
f 799/6/6 800/6/6 806/6/6
f 800/6/6 801/6/6 806/6/6
f 806/6/6 801/6/6 807/6/6
f 807/6/6 801/6/6 808/6/6
f 803/6/6 804/6/6 810/6/6
f 802/6/6 803/6/6 810/6/6
f 810/6/6 804/6/6 811/6/6
f 808/6/6 809/6/6 812/6/6
f 807/6/6 808/6/6 812/6/6
f 812/6/6 809/6/6 813/6/6
f 802/6/6 810/6/6 815/6/6
f 815/6/6 810/6/6 816/6/6
f 816/6/6 810/6/6 817/6/6
f 813/6/6 809/6/6 818/6/6
f 818/6/6 809/6/6 819/6/6
f 819/6/6 809/6/6 820/6/6
f 814/6/6 815/6/6 822/6/6
f 815/6/6 816/6/6 822/6/6
f 822/6/6 816/6/6 823/6/6
f 823/6/6 816/6/6 824/6/6
f 820/6/6 821/6/6 827/6/6
f 819/6/6 820/6/6 827/6/6
f 827/6/6 821/6/6 828/6/6
f 828/6/6 821/6/6 829/6/6
f 824/6/6 825/6/6 830/6/6
f 823/6/6 824/6/6 830/6/6
f 827/6/6 828/6/6 833/6/6
f 826/6/6 827/6/6 833/6/6
f 830/6/6 831/6/6 834/6/6
f 823/6/6 830/6/6 834/6/6
f 834/6/6 831/6/6 835/6/6
f 835/6/6 831/6/6 836/6/6
f 832/6/6 833/6/6 839/6/6
f 833/6/6 828/6/6 840/6/6
f 839/6/6 833/6/6 840/6/6
f 840/6/6 828/6/6 841/6/6
f 836/6/6 837/6/6 842/6/6
f 835/6/6 836/6/6 842/6/6
f 842/6/6 837/6/6 843/6/6
f 843/6/6 837/6/6 844/6/6
f 838/6/6 839/6/6 845/6/6
f 839/6/6 840/6/6 845/6/6
f 845/6/6 840/6/6 846/6/6
f 846/6/6 840/6/6 847/6/6
f 843/6/6 844/6/6 848/6/6
f 845/6/6 846/6/6 848/6/6
f 844/6/6 845/6/6 848/6/6
f 848/6/6 846/6/6 849/6/6
f 849/6/6 846/6/6 850/6/6
f 850/6/6 846/6/6 851/6/6
f 849/6/6 850/6/6 852/6/6
f 852/6/6 850/6/6 853/6/6
